<svg width="96" height="96" viewBox="0 0 96 96" fill="none" xmlns="http://www.w3.org/2000/svg">
<path d="M65.4056 17.6532H32.8767C28.5497 17.6532 25.042 21.0055 25.042 25.1408V70.8102C25.042 74.9455 28.5497 78.2978 32.8767 78.2978H65.4056C69.7326 78.2978 73.2403 74.9455 73.2403 70.8102V25.1408C73.2403 21.0055 69.7326 17.6532 65.4056 17.6532Z" fill="#37C9EE"/>
<path fillRule="evenodd" clipRule="evenodd" d="M27.372 17.7028H39.4692V78.3474H27.372C26.083 78.3474 24.9922 77.3061 24.9922 75.9672V20.0333C24.9922 18.7441 26.0334 17.6532 27.372 17.6532V17.7028Z" fill="#2C93D6"/>
<path fillRule="evenodd" clipRule="evenodd" d="M69.6203 58.8099V70.7107C69.6203 72.3967 68.9261 73.9338 67.8352 75.0247C66.7443 76.1157 65.2071 76.8099 63.5212 76.8099H32.5295C30.8435 76.8099 29.3063 76.1157 28.2154 75.0247C27.1245 73.9338 26.4303 72.3967 26.4303 70.7107V37.2396V25.3389C26.4303 23.6529 27.1245 22.1157 28.2154 21.0248C29.3063 19.9338 30.8435 19.2396 32.5295 19.2396H63.5212C65.2071 19.2396 66.7443 19.9338 67.8352 21.0248C68.9261 22.1157 69.6203 23.6529 69.6203 25.3389V37.2396C69.6203 39.2231 71.2072 40.8595 73.2402 40.8595C75.2237 40.8595 76.86 39.2231 76.86 37.2396V25.3389C76.86 18 70.86 12 63.5707 12H32.579C25.2402 12 19.2402 18 19.2402 25.3389V70.7107C19.2402 77.5537 24.4964 83.2562 31.1906 84L63.5707 84.0496C70.9096 84.0496 76.86 78.0496 76.86 70.7107V58.8099C76.86 56.8265 75.2733 55.19 73.2402 55.19C71.2568 55.19 69.6203 56.8265 69.6203 58.8099ZM76.8105 48C76.8105 46.0165 75.1741 44.3802 73.1906 44.3802H45.8683L54.9923 35.2562C56.3807 33.8678 56.3807 31.5868 54.9923 30.1488C53.6038 28.7603 51.3228 28.7603 49.8848 30.1488L34.6121 45.4214C33.9675 46.0661 33.5708 46.9587 33.5708 47.9504C33.5708 48.9421 33.9675 49.8347 34.6121 50.4793L49.8848 65.752C51.2733 67.1405 53.5542 67.1405 54.9923 65.752C56.3807 64.3636 56.3807 62.0826 54.9923 60.6446L45.8683 51.5207H73.1906C75.1741 51.5207 76.8105 49.8842 76.8105 47.9008V48Z" fill="#121212"/>
</svg>
