<svg width="32" height="32" viewBox="0 0 32 32" fill="none" xmlns="http://www.w3.org/2000/svg">
<path fillRule="evenodd" clipRule="evenodd" d="M4.00024 23.5702C4.00024 26.0165 6.00025 28 8.44653 28H23.5705C26.0168 28 28.0168 26 28.0168 23.5702V5.43802C28.0168 4.64463 27.3722 4 26.5788 4H11.9341C11.1407 4 10.4961 4.64463 10.4961 5.43802V8.79339H5.4548C4.66141 8.79339 4.01679 9.43802 4.01679 10.2314V23.5537L4.00024 23.5702ZM15.273 19.6033C15.273 20.2645 15.8184 20.8099 16.4796 20.8099H22.0002C22.6614 20.8099 23.2068 20.2645 23.2068 19.6033C23.2068 18.9421 22.6614 18.3967 22.0002 18.3967H16.4796C15.8184 18.3967 15.273 18.9421 15.273 19.6033ZM15.273 14.8099C15.273 15.4711 15.8184 16.0165 16.4796 16.0165H22.0002C22.6614 16.0165 23.2068 15.4711 23.2068 14.8099C23.2068 14.1488 22.6614 13.6033 22.0002 13.6033H16.4796C15.8184 13.6033 15.273 14.1488 15.273 14.8099ZM15.273 10.0165C15.273 10.6777 15.8184 11.2231 16.4796 11.2231H22.0002C22.6614 11.2231 23.2068 10.6777 23.2068 10.0165C23.2068 9.35537 22.6614 8.80992 22.0002 8.80992H16.4796C15.8184 8.80992 15.273 9.35537 15.273 10.0165ZM23.554 25.6198H12.3639C12.6779 25.0083 12.8597 24.314 12.8597 23.5868V8.82645V7.61984V6.41322C16.4631 6.41322 21.9837 6.41322 25.587 6.41322V23.5868C25.587 24.1488 25.3556 24.6612 24.992 25.0248C24.6283 25.3884 24.1159 25.6198 23.554 25.6198ZM10.4631 11.2231V23.5868C10.4631 24.1488 10.2317 24.6612 9.86802 25.0248C9.50438 25.3884 8.99199 25.6198 8.43001 25.6198C7.86803 25.6198 7.35561 25.3884 6.99198 25.0248C6.62834 24.6612 6.39693 24.1488 6.39693 23.5868V11.2231H10.4796H10.4631Z" fill="#13548A"/>
</svg>
