<svg width="96" height="96" viewBox="0 0 96 96" fill="none" xmlns="http://www.w3.org/2000/svg">
<path d="M79.9837 17.6527H38.6779C33.1733 17.6527 28.7109 21.005 28.7109 25.1403V70.8098C28.7109 74.945 33.1733 78.2973 38.6779 78.2973H79.9837C85.4883 78.2973 89.9506 74.945 89.9506 70.8098V25.1403C89.9506 21.005 85.4883 17.6527 79.9837 17.6527Z" fill="#37C9EE"/>
<path fillRule="evenodd" clipRule="evenodd" d="M32.2316 17.7023H50.2317V78.347H32.2316C30.2977 78.347 28.7109 76.7602 28.7109 74.8263V21.1733C28.7109 19.2395 30.2977 17.6527 32.2316 17.6527V17.7023Z" fill="#2C93D6"/>
<path fillRule="evenodd" clipRule="evenodd" d="M46.1157 11.9999H72.0496C84.7438 11.9999 95.1075 22.3635 95.1075 35.0577V60.9916C95.1075 73.6858 84.7438 84.0495 72.0496 84.0495H46.1157C33.4215 84.0495 23.0578 73.6858 23.0578 60.9916V55.2395H19.438C17.4545 55.2395 15.8182 53.6031 15.8182 51.6197C15.8182 49.6362 17.4545 47.9998 19.438 47.9998H23.0578V40.8098H12.2479C10.2644 40.8098 8.6281 39.1734 8.6281 37.19C8.6281 35.2065 10.2644 33.5701 12.2479 33.5701H23.1074C23.2562 31.0412 23.8512 28.6114 24.7438 26.38H4.51239C2.52892 26.38 0.892578 24.7437 0.892578 22.7602C0.892578 20.7767 2.52892 19.1404 4.51239 19.1404H29.405C33.6199 14.7272 39.5702 11.9502 46.1157 11.9502V11.9999ZM54.7437 53.8511L30.2479 39.7189V60.942C30.2479 65.3056 32.033 69.2726 34.909 72.099C37.7851 74.9751 41.7521 76.7602 46.1157 76.7602H72.0496C76.4132 76.7602 80.3801 74.9751 83.2561 72.099C86.1322 69.223 87.9173 65.256 87.9173 60.942V39.7189L63.4214 53.8511C60.6942 55.4379 57.5207 55.4379 54.7934 53.8511H54.7437ZM30.6446 31.6362L56.9256 46.8098C58.314 47.6032 59.8512 47.6032 61.2397 46.8098L87.5206 31.6362C86.876 28.661 85.3388 25.9833 83.2561 23.8511C80.3801 20.9751 76.4132 19.1899 72.0496 19.1899H46.1157C41.7521 19.1899 37.7851 20.9751 34.909 23.8511C32.8264 25.9338 31.2893 28.6114 30.6446 31.6362Z" fill="#121212"/>
</svg>
