<svg width="32" height="32" viewBox="0 0 32 32" fill="none" xmlns="http://www.w3.org/2000/svg">
<path fillRule="evenodd" clipRule="evenodd" d="M19.9504 20.9751L24.3967 25.4214C24.6281 25.6528 25.0082 25.6528 25.2396 25.4214C25.471 25.19 25.471 24.8098 25.2396 24.5784L20.8264 20.1652C20.5454 20.4627 20.2644 20.7272 19.9504 20.9917V20.9751ZM22.2479 18.1817L26.9421 22.876C28.1157 24.0495 28.1157 25.9503 26.9421 27.1239C26.3636 27.7024 25.5867 27.9999 24.8264 27.9999C24.0661 27.9999 23.2892 27.7024 22.7107 27.1239L17.8843 22.2975C16.6446 22.876 15.2727 23.19 13.8181 23.19C8.51236 23.19 4.21484 18.8925 4.21484 13.5867C4.21484 8.28092 8.51236 3.9834 13.8181 3.9834C19.1239 3.9834 23.4215 8.28092 23.4215 13.5867C23.4215 15.2561 22.9917 16.8098 22.2479 18.1817ZM13.8181 6.39662C17.8016 6.39662 21.0248 9.61976 21.0248 13.6032C21.0248 17.5867 17.8016 20.8098 13.8181 20.8098C9.83467 20.8098 6.61154 17.5867 6.61154 13.6032C6.61154 9.61976 9.83467 6.39662 13.8181 6.39662Z" fill="#ADADAD"/>
</svg>
