<svg width="24" height="24" viewBox="0 0 24 24" fill="none" xmlns="http://www.w3.org/2000/svg">
<path fillRule="evenodd" clipRule="evenodd" d="M4.94033 9.74375L12.1428 9.74376C13.3825 9.74376 14.399 10.7479 14.399 12C14.399 13.2396 13.3949 14.2562 12.1428 14.2562L4.94033 14.2562C3.70066 14.2562 2.68413 13.252 2.68413 12C2.68413 10.7603 3.68827 9.74375 4.94033 9.74375ZM20.4982 9.9545L15.5271 4.98343C14.6469 4.10326 13.2213 4.10326 12.3412 4.98343C11.461 5.86359 11.461 7.28921 12.3412 8.16937L16.1717 12L12.3412 15.8305C11.461 16.7107 11.461 18.1363 12.3412 19.0165C13.2213 19.8966 14.6469 19.8966 15.5271 19.0165L20.4982 14.0454C21.6139 12.9297 21.6139 11.095 20.4982 9.9669L20.4982 9.9545ZM13.618 17.095C13.4445 17.2685 13.4445 17.5537 13.618 17.7272C13.7916 17.9008 14.0767 17.9008 14.2503 17.7272L19.3453 12.6322C19.6924 12.2851 19.6924 11.7148 19.3453 11.3553L14.2503 6.26028C14.0767 6.08673 13.7916 6.08673 13.618 6.26028C13.4445 6.43384 13.4445 6.71896 13.618 6.89252L18.7131 11.9876L13.618 17.0826L13.618 17.095ZM12.1428 11.5413L4.94033 11.5413C4.6924 11.5413 4.49405 11.7396 4.49405 11.9876C4.49405 12.2355 4.6924 12.4338 4.94033 12.4338L12.1428 12.4338C12.3907 12.4338 12.5891 12.2355 12.5891 11.9876C12.5891 11.7396 12.3907 11.5413 12.1428 11.5413Z" fill="#4e90e9"/>
</svg>
