<svg width="24" height="24" viewBox="0 0 24 24" fill="none" xmlns="http://www.w3.org/2000/svg">
<path fillRule="evenodd" clipRule="evenodd" d="M4.79754 8.13219H19.2025C19.6984 8.13219 20.1075 7.7231 20.1075 7.22723C20.1075 6.73137 19.6984 6.32226 19.2025 6.32226H15.3347C15.3347 4.48755 13.8347 2.98755 12 2.98755C10.1653 2.98755 8.6653 4.48755 8.6653 6.32226H4.79754C4.30167 6.32226 3.89258 6.73137 3.89258 7.22723C3.89258 7.7231 4.30167 8.13219 4.79754 8.13219ZM19.2025 10.9214C19.2521 10.4256 18.8926 9.97928 18.3967 9.94209C17.9008 9.89251 17.467 10.252 17.4174 10.7479L16.6488 18.409C16.624 18.6322 16.5248 18.8429 16.3513 18.9917C16.1901 19.1404 15.967 19.2272 15.7438 19.2272H11.9876H8.23142C8.00828 19.2272 7.79754 19.1404 7.62398 18.9917C7.46282 18.8429 7.35126 18.6322 7.32646 18.409L6.55786 10.7479C6.50828 10.252 6.062 9.89251 5.57853 9.94209C5.08266 9.99168 4.72316 10.438 4.77274 10.9214L5.52894 18.5826C5.59093 19.252 5.91324 19.8719 6.40911 20.3181C6.90497 20.7644 7.5496 21.0124 8.21902 21.0124H11.9752H15.7314C16.4008 21.0124 17.0455 20.7644 17.5413 20.3181C18.0372 19.8719 18.3471 19.252 18.4215 18.5826L19.1777 10.9214H19.2025ZM13.7975 17.4173C14.2934 17.4173 14.7025 17.0082 14.7025 16.5123V12.6322C14.7025 12.1363 14.2934 11.7272 13.7975 11.7272C13.3017 11.7272 12.8926 12.1363 12.8926 12.6322V16.5123C12.8926 17.0082 13.3017 17.4173 13.7975 17.4173ZM10.2025 17.4173C9.70663 17.4173 9.29754 17.0082 9.29754 16.5123V12.6322C9.29754 12.1363 9.70663 11.7272 10.2025 11.7272C10.6984 11.7272 11.1075 12.1363 11.1075 12.6322V16.5123C11.1075 17.0082 10.6984 17.4173 10.2025 17.4173ZM13.5372 6.33467H10.4752C10.4752 5.91318 10.6488 5.52887 10.9215 5.25615C11.1942 4.98342 11.5785 4.80986 12 4.80986C12.4215 4.80986 12.8058 4.98342 13.0785 5.25615C13.3513 5.52887 13.5248 5.91318 13.5248 6.33467H13.5372Z" fill="#B86DF3"/>
</svg>
