<svg width="25" height="25" viewBox="0 0 25 25" fill="none" xmlns="http://www.w3.org/2000/svg">
<path fillRule="evenodd" clipRule="evenodd" d="M12.1445 3.5C7.17345 3.5 3.14453 7.52893 3.14453 12.5C3.14453 17.4711 7.17345 21.5 12.1445 21.5C17.1156 21.5 21.1445 17.4711 21.1445 12.5C21.1445 7.52893 17.1156 3.5 12.1445 3.5ZM14.6611 8.44628L14.6363 5.7438C13.8553 5.45868 13.0247 5.29752 12.1445 5.29752C8.16519 5.29752 4.94205 8.52066 4.94205 12.5C4.94205 14.1983 5.52469 15.7479 6.50402 16.9752V16.5537C6.50402 15.3141 7.50817 14.2975 8.76023 14.2975H11.5123C11.7602 14.2975 11.9586 14.0992 11.9586 13.8512C11.9586 13.6033 11.7602 13.405 11.5123 13.405H10.0371C8.79742 13.405 7.78088 12.4008 7.78088 11.1488C7.78088 9.90909 8.78502 8.89256 10.0371 8.89256H14.2148C14.4627 8.89256 14.6611 8.69422 14.6611 8.44628ZM16.4586 6.73554V8.44628C16.4586 9.68595 15.4544 10.7025 14.2024 10.7025H10.0247C9.77677 10.7025 9.57842 10.9008 9.57842 11.1488C9.57842 11.3967 9.77677 11.595 10.0247 11.595H11.4999C12.7396 11.595 13.7561 12.5992 13.7561 13.8512C13.7561 15.0909 12.752 16.1074 11.4999 16.1074H8.74784C8.49991 16.1074 8.30156 16.3058 8.30156 16.5537V18.5992C9.41726 19.3058 10.7313 19.7025 12.1445 19.7025C14.8098 19.7025 17.1404 18.2521 18.3801 16.1074H16.9049C15.6652 16.1074 14.6487 15.1033 14.6487 13.8512C14.6487 12.6116 15.6528 11.595 16.9049 11.595H19.285C19.0371 9.61157 17.9834 7.87604 16.4586 6.72314V6.73554ZM19.285 13.405H16.9049C16.6569 13.405 16.4586 13.6033 16.4586 13.8512C16.4586 14.0992 16.6569 14.2975 16.9049 14.2975H19.1115C19.1859 14 19.2478 13.7025 19.285 13.3926V13.405Z" fill="white"/>
</svg>
