<svg fill="currentColor" xmlns="http://www.w3.org/2000/svg">
<path d="M9.34375 14H10.8438V10.75H14.0938V9.25H10.8438V6H9.34375V9.25H6.09375V10.75H9.34375V14ZM10.0938 18C8.99642 18 7.96175 17.7917 6.98975 17.375C6.01775 16.9583 5.16708 16.3853 4.43775 15.656C3.70842 14.9267 3.13542 14.076 2.71875 13.104C2.30208 12.132 2.09375 11.0973 2.09375 10C2.09375 8.88867 2.30208 7.85033 2.71875 6.885C3.13542 5.92033 3.70842 5.07333 4.43775 4.344C5.16708 3.61467 6.01775 3.04167 6.98975 2.625C7.96175 2.20833 8.99642 2 10.0938 2C11.2051 2 12.2434 2.20833 13.2087 2.625C14.1734 3.04167 15.0204 3.61467 15.7498 4.344C16.4791 5.07333 17.0521 5.92033 17.4688 6.885C17.8854 7.85033 18.0938 8.88867 18.0938 10C18.0938 11.0973 17.8854 12.132 17.4688 13.104C17.0521 14.076 16.4791 14.9267 15.7498 15.656C15.0204 16.3853 14.1734 16.9583 13.2087 17.375C12.2434 17.7917 11.2051 18 10.0938 18ZM10.0938 16.5C11.8991 16.5 13.4338 15.868 14.6978 14.604C15.9618 13.34 16.5938 11.8053 16.5938 10C16.5938 8.19467 15.9618 6.66 14.6978 5.396C13.4338 4.132 11.8991 3.5 10.0938 3.5C8.28842 3.5 6.75375 4.132 5.48975 5.396C4.22575 6.66 3.59375 8.19467 3.59375 10C3.59375 11.8053 4.22575 13.34 5.48975 14.604C6.75375 15.868 8.28842 16.5 10.0938 16.5Z"/>
</svg>
