<svg width="24" height="25" viewBox="0 0 24 25" fill="none" xmlns="http://www.w3.org/2000/svg">
<path d="M15.45 11.6H8.85C8.37261 11.6 7.91477 11.4104 7.57721 11.0728C7.23964 10.7352 7.05 10.2774 7.05 9.8C7.05 9.32261 7.23964 8.86477 7.57721 8.52721C7.91477 8.18964 8.37261 8 8.85 8H16.35C16.5887 8 16.8176 8.09482 16.9864 8.2636C17.1552 8.43239 17.25 8.66131 17.25 8.9C17.25 9.1387 17.3448 9.36761 17.5136 9.5364C17.6824 9.70518 17.9113 9.8 18.15 9.8C18.3887 9.8 18.6176 9.70518 18.7864 9.5364C18.9552 9.36761 19.05 9.1387 19.05 8.9C19.05 8.18392 18.7655 7.49716 18.2592 6.99081C17.7528 6.48446 17.0661 6.2 16.35 6.2H13.05V4.4C13.05 4.16131 12.9552 3.93239 12.7864 3.7636C12.6176 3.59482 12.3887 3.5 12.15 3.5C11.9113 3.5 11.6824 3.59482 11.5136 3.7636C11.3448 3.93239 11.25 4.16131 11.25 4.4V6.2H8.85C7.89522 6.2 6.97955 6.57928 6.30442 7.25442C5.62928 7.92955 5.25 8.84522 5.25 9.8C5.25 10.7548 5.62928 11.6705 6.30442 12.3456C6.97955 13.0207 7.89522 13.4 8.85 13.4H15.45C15.9274 13.4 16.3852 13.5896 16.7228 13.9272C17.0604 14.2648 17.25 14.7226 17.25 15.2C17.25 15.6774 17.0604 16.1352 16.7228 16.4728C16.3852 16.8104 15.9274 17 15.45 17H7.95C7.71131 17 7.48239 16.9052 7.3136 16.7364C7.14482 16.5676 7.05 16.3387 7.05 16.1C7.05 15.8613 6.95518 15.6324 6.7864 15.4636C6.61761 15.2948 6.38869 15.2 6.15 15.2C5.91131 15.2 5.68239 15.2948 5.5136 15.4636C5.34482 15.6324 5.25 15.8613 5.25 16.1C5.25 16.8161 5.53446 17.5028 6.04081 18.0092C6.54716 18.5155 7.23392 18.8 7.95 18.8H11.25V20.6C11.25 20.8387 11.3448 21.0676 11.5136 21.2364C11.6824 21.4052 11.9113 21.5 12.15 21.5C12.3887 21.5 12.6176 21.4052 12.7864 21.2364C12.9552 21.0676 13.05 20.8387 13.05 20.6V18.8H15.45C16.4048 18.8 17.3205 18.4207 17.9956 17.7456C18.6707 17.0705 19.05 16.1548 19.05 15.2C19.05 14.2452 18.6707 13.3295 17.9956 12.6544C17.3205 11.9793 16.4048 11.6 15.45 11.6Z" fill="white"/>
</svg>
