<svg viewBox="0 0 33 33" fill="currentColor" xmlns="http://www.w3.org/2000/svg">
<path fillRule="evenodd" clipRule="evenodd" d="M8.87207 4.62305C6.42579 4.62305 4.42578 6.62304 4.42578 9.06933V10.9867C4.42578 13.433 6.42579 15.433 8.87207 15.433H10.8059C13.2522 15.433 15.2357 13.433 15.2357 11.0032V9.06933C15.2357 6.62304 13.2357 4.62305 10.8059 4.62305H8.87207ZM8.87207 17.8297C6.42579 17.8297 4.42578 19.8297 4.42578 22.2594V24.1933C4.42578 26.6396 6.42579 28.6396 8.87207 28.623H10.8059C13.2522 28.623 15.2357 26.623 15.2357 24.1768V22.2594C15.2357 19.8131 13.2357 17.8131 10.8059 17.8131H8.87207V17.8297ZM12.839 24.1933C12.839 24.7553 12.6076 25.2677 12.244 25.6313C11.8803 25.995 11.3679 26.2264 10.8059 26.2264H8.87207C8.31008 26.2264 7.79768 25.995 7.43405 25.6313C7.07041 25.2677 6.839 24.7553 6.839 24.1933V22.2594C6.839 21.6974 7.07041 21.185 7.43405 20.8214C7.79768 20.4578 8.31008 20.2264 8.87207 20.2264H10.8059C11.3679 20.2264 11.8803 20.4578 12.244 20.8214C12.6076 21.185 12.839 21.6974 12.839 22.2594V24.1768V24.1933ZM22.0787 17.8297C19.6324 17.8297 17.6489 19.8297 17.6489 22.2594V24.1933C17.6489 26.6396 19.6489 28.6396 22.0787 28.623H24.0126C26.4588 28.623 28.4588 26.623 28.4588 24.1768V22.2594C28.4588 19.8131 26.4588 17.8131 24.0126 17.8131H22.0787V17.8297ZM26.0456 24.1933C26.0456 24.7553 25.8142 25.2677 25.4506 25.6313C25.0869 25.995 24.5746 26.2264 24.0126 26.2264H22.0787C21.5167 26.2264 21.0043 25.995 20.6407 25.6313C20.277 25.2677 20.0456 24.7553 20.0456 24.1933V22.2594C20.0456 21.6974 20.277 21.185 20.6407 20.8214C21.0043 20.4578 21.5167 20.2264 22.0787 20.2264H24.0126C24.5746 20.2264 25.0869 20.4578 25.4506 20.8214C25.8142 21.185 26.0456 21.6974 26.0456 22.2594V24.1768V24.1933ZM22.0787 4.62305C19.6324 4.62305 17.6489 6.62304 17.6489 9.06933V10.9867C17.6489 13.433 19.6489 15.433 22.0787 15.433H24.0126C26.4588 15.433 28.4588 13.433 28.4588 11.0032V9.06933C28.4588 6.62304 26.4588 4.62305 24.0126 4.62305H22.0787ZM26.0456 10.9867C26.0456 11.5487 25.8142 12.0611 25.4506 12.4247C25.0869 12.7883 24.5746 13.0197 24.0126 13.0197H22.0787C21.5167 13.0197 21.0043 12.7883 20.6407 12.4247C20.277 12.0611 20.0456 11.5487 20.0456 10.9867V9.0528C20.0456 8.49082 20.277 7.97842 20.6407 7.61478C21.0043 7.25115 21.5167 7.01974 22.0787 7.01974H24.0126C24.5746 7.01974 25.0869 7.25115 25.4506 7.61478C25.8142 7.97842 26.0456 8.49082 26.0456 9.0528V10.9702V10.9867ZM12.839 10.9867C12.839 11.5487 12.6076 12.0611 12.244 12.4247C11.8803 12.7883 11.3679 13.0197 10.8059 13.0197H8.87207C8.31008 13.0197 7.79768 12.7883 7.43405 12.4247C7.07041 12.0611 6.839 11.5487 6.839 10.9867V9.0528C6.839 8.49082 7.07041 7.97842 7.43405 7.61478C7.79768 7.25115 8.31008 7.01974 8.87207 7.01974H10.8059C11.3679 7.01974 11.8803 7.25115 12.244 7.61478C12.6076 7.97842 12.839 8.49082 12.839 9.0528V10.9702V10.9867Z"/>
</svg>
