<svg width="32" height="32" viewBox="0 0 32 32" fill="none" xmlns="http://www.w3.org/2000/svg">
<path fillRule="evenodd" clipRule="evenodd" d="M4.67772 14.4793C3.78516 13.5867 3.78516 12.1322 4.67772 11.2231C4.92566 10.9752 5.22317 10.7933 5.55375 10.6776L24.4463 4.14872C25.4215 3.81814 26.4959 4.06607 27.2232 4.79334C27.9504 5.52062 28.1984 6.59501 27.8678 7.57022L21.3389 26.4628C21.2232 26.7933 21.0414 27.0909 20.7934 27.3388C19.9009 28.2314 18.4463 28.2314 17.5372 27.3388C17.3885 27.19 17.2397 27.0578 17.1405 26.8925L13.8513 20.6611C13.686 20.3471 13.686 19.9504 13.8843 19.6363L16.1488 15.8677L12.3802 18.1322C12.0661 18.314 11.686 18.3305 11.3554 18.1652L5.12399 14.876C4.94217 14.7768 4.80995 14.6281 4.67772 14.4793ZM25.2066 6.41317L6.49589 12.876L11.8017 15.6859L14.8926 13.8347C15.6364 13.3719 16.5951 13.3388 17.3884 13.8181C18.5289 14.4958 18.8926 15.9669 18.2149 17.1074L16.3471 20.2148L19.1571 25.5206L25.6199 6.80988C25.6364 6.76029 25.6364 6.69416 25.6199 6.64458C25.6033 6.59499 25.5868 6.54542 25.5372 6.51237C25.4876 6.46278 25.438 6.44625 25.405 6.42972C25.3554 6.41319 25.2893 6.41318 25.2397 6.44624V6.42972L25.2066 6.41317Z" fill="#575757"/>
</svg>
