<svg width="24" height="24" viewBox="0 0 24 24" fill="none" xmlns="http://www.w3.org/2000/svg">
<path fillRule="evenodd" clipRule="evenodd" d="M3.50841 10.8594C2.83899 10.19 2.83899 9.09908 3.50841 8.41726C3.69436 8.23131 3.9175 8.09494 4.16544 8.00817L18.3348 3.11148C19.0663 2.86354 19.872 3.04949 20.4175 3.59495C20.963 4.1404 21.1489 4.9462 20.901 5.6776L16.0043 19.847C15.9175 20.0949 15.7811 20.3181 15.5952 20.504C14.9258 21.1735 13.8349 21.1735 13.153 20.504C13.0415 20.3925 12.9299 20.2933 12.8555 20.1693L10.3886 15.4958C10.2646 15.2602 10.2646 14.9627 10.4134 14.7272L12.1117 11.9007L9.28526 13.5991C9.04972 13.7355 8.7646 13.7478 8.51667 13.6239L3.84311 11.1569C3.70675 11.0826 3.60759 10.971 3.50841 10.8594ZM18.9051 4.80982L4.87204 9.65693L8.85139 11.7644L11.1696 10.3759C11.7274 10.0288 12.4464 10.004 13.0415 10.3636C13.8968 10.8718 14.1696 11.9751 13.6613 12.8305L12.2605 15.1611L14.3679 19.1404L19.215 5.10735C19.2274 5.07016 19.2274 5.02056 19.215 4.98337C19.2026 4.94618 19.1902 4.90901 19.153 4.88421C19.1158 4.84702 19.0787 4.83462 19.0539 4.82223C19.0167 4.80983 18.9671 4.80982 18.9299 4.83462V4.82223L18.9051 4.80982Z" fill="#B86DF3"/>
</svg>