<svg viewBox="0 0 24 24" fill="currentColor" xmlns="http://www.w3.org/2000/svg">
<path fillRule="evenodd" clipRule="evenodd" d="M12.0002 3C9.01259 3 6.59523 5.41736 6.59523 8.40496C6.59523 9.81818 7.14069 11.095 8.02085 12.062C5.18201 12.4587 2.98779 14.9008 2.98779 17.8512V20.1074C2.98779 20.6033 3.39688 21.0124 3.89275 21.0124C4.38862 21.0124 4.79771 20.6033 4.79771 20.1074V17.8512C4.79771 15.6198 6.60763 13.7975 8.85143 13.7975H12.0002H15.149C17.3804 13.7975 19.2027 15.6074 19.2027 17.8512V20.1074C19.2027 20.6033 19.6118 21.0124 20.1076 21.0124C20.6035 21.0124 21.0126 20.6033 21.0126 20.1074V17.8512C21.0126 14.9008 18.8308 12.4587 15.9795 12.062C16.8597 11.095 17.4051 9.81818 17.4051 8.40496C17.4051 5.41736 14.9878 3 12.0002 3ZM17.4051 21C17.901 21 18.3101 20.5909 18.3101 20.095C18.3101 19.5992 17.901 19.1901 17.4051 19.1901C13.8101 19.1901 10.2027 19.1901 6.60763 19.1901C6.11176 19.1901 5.70267 19.5992 5.70267 20.095C5.70267 20.5909 6.11176 21 6.60763 21C10.2027 21 13.8101 21 17.4051 21ZM12.0002 4.79752C10.0167 4.79752 8.40515 6.40909 8.40515 8.39256C8.40515 10.376 10.0167 11.9876 12.0002 11.9876C13.9837 11.9876 15.5952 10.376 15.5952 8.39256C15.5952 6.40909 13.9837 4.79752 12.0002 4.79752Z"/>
</svg>
