<svg width="24" height="25" viewBox="0 0 24 25" fill="none" xmlns="http://www.w3.org/2000/svg">
<path fillRule="evenodd" clipRule="evenodd" d="M12.1024 4.25805C12.4405 4.30022 12.7338 4.50822 12.8811 4.81036L14.8881 8.8343C15.0328 9.12703 15.3152 9.33073 15.6427 9.37871L20.1384 10.0336C20.4027 10.0707 20.6411 10.2097 20.8008 10.42C20.9605 10.6303 21.0284 10.8944 20.9894 11.154C20.9583 11.3691 20.8568 11.5685 20.7004 11.7221L17.441 14.8781C17.2023 15.1012 17.0937 15.4273 17.152 15.746L17.9548 20.1881C18.0435 20.7195 17.6889 21.2248 17.152 21.3322C16.9323 21.3667 16.7071 21.3307 16.5097 21.2296L12.4957 19.1387C12.1985 18.9885 11.8457 18.9885 11.5484 19.1387L7.5344 21.2296C7.04247 21.4912 6.42852 21.3144 6.1577 20.8346L6.15349 20.8273C6.0683 20.6679 6.02868 20.4896 6.03776 20.3112C6.03938 20.2727 6.04319 20.2343 6.04921 20.196L6.85202 15.7539C6.85709 15.7261 6.86091 15.6983 6.86348 15.6705C6.88228 15.3828 6.77386 15.099 6.56292 14.894L3.29551 11.7379C2.90208 11.3504 2.9015 10.7234 3.29377 10.3352L3.30362 10.3255C3.45767 10.1688 3.66163 10.0686 3.88164 10.0415L8.37734 9.3866C8.62079 9.35094 8.83928 9.22925 8.99486 9.04891C9.04634 8.98732 9.09197 8.91826 9.13189 8.84226L11.0667 4.81036C11.0759 4.79177 11.0856 4.77355 11.0958 4.75573C11.1607 4.6178 11.2864 4.49805 11.4302 4.40974C11.4519 4.39624 11.4742 4.38355 11.4969 4.37173C11.6776 4.27611 11.8756 4.23021 12.0136 4.25805H12.1024ZM11.9954 8.07573L11.1428 9.8524L11.1239 9.88843C11.0166 10.0927 10.8841 10.297 10.7211 10.492L10.7099 10.5054L10.6985 10.5186C10.1901 11.1079 9.48286 11.4987 8.70347 11.6128L6.70588 11.9038L8.13112 13.2805C8.81242 13.9427 9.17065 14.8689 9.10869 15.8172L9.10671 15.8475L9.10391 15.8778C9.09534 15.9705 9.08268 16.0632 9.06589 16.1555L9.06527 16.1589L8.71886 18.0757L10.5212 17.1369L10.5334 17.1307C11.4689 16.6578 12.5752 16.6578 13.5107 17.1307L13.523 17.1369L15.2825 18.0534L14.9387 16.151L14.9381 16.1476C14.7434 15.077 15.1071 13.9915 15.886 13.2519L17.29 11.8924L15.3166 11.605C14.2714 11.4518 13.3516 10.7995 12.8733 9.83592L11.9954 8.07573Z" fill="#2C93D6"/>
</svg>
