<svg width="32" height="32" viewBox="0 0 32 32" fill="none" xmlns="http://www.w3.org/2000/svg">
<path fillRule="evenodd" clipRule="evenodd" d="M16.1366 5.01074C16.5875 5.06695 16.9786 5.34429 17.1749 5.74714L19.8509 11.1124C20.0439 11.5027 20.4204 11.7743 20.8571 11.8383L26.8514 12.7115C27.2038 12.7609 27.5216 12.9463 27.7346 13.2266C27.9475 13.507 28.038 13.8592 27.986 14.2053C27.9445 14.4922 27.8093 14.758 27.6007 14.9628L23.2548 19.1708C22.9365 19.4683 22.7917 19.9031 22.8695 20.328L23.9399 26.2508C24.0581 26.9594 23.5854 27.6331 22.8695 27.7762C22.5765 27.8223 22.2762 27.7743 22.0132 27.6395L16.6611 24.8517C16.2648 24.6513 15.7944 24.6513 15.3981 24.8517L10.046 27.6395C9.39013 27.9883 8.57153 27.7525 8.21043 27.1128L8.20482 27.1031C8.09124 26.8906 8.0384 26.6528 8.05052 26.4149C8.05268 26.3636 8.05775 26.3124 8.06578 26.2613L9.13619 20.3385C9.14296 20.3015 9.14804 20.2644 9.15147 20.2274C9.17654 19.8437 9.03198 19.4653 8.75072 19.1919L4.39418 14.9839C3.86961 14.4672 3.86883 13.6312 4.39186 13.1136L4.405 13.1007C4.61039 12.8917 4.88235 12.7581 5.17569 12.722L11.17 11.8488C11.4946 11.8013 11.7859 11.639 11.9933 11.3985C12.062 11.3164 12.1228 11.2244 12.176 11.123L14.7558 5.74714C14.768 5.72236 14.7809 5.69807 14.7946 5.67431C14.8811 5.4904 15.0488 5.33073 15.2405 5.21299C15.2694 5.19498 15.2991 5.17807 15.3293 5.1623C15.5704 5.03482 15.8344 4.97362 16.0183 5.01074H16.1366ZM15.994 10.101L14.8572 12.4699L14.832 12.5179C14.689 12.7902 14.5123 13.0627 14.295 13.3226L14.2801 13.3405L14.2649 13.3582C13.587 14.1439 12.644 14.6649 11.6048 14.8171L8.94134 15.2051L10.8417 17.0406C11.7501 17.9236 12.2277 19.1586 12.1451 20.423L12.1424 20.4634L12.1387 20.5037C12.1273 20.6274 12.1104 20.7509 12.088 20.874L12.0872 20.8785L11.6253 23.4343L14.0284 22.1825L14.0447 22.1743C15.292 21.5438 16.7672 21.5438 18.0145 22.1743L18.0308 22.1825L20.3769 23.4046L19.9185 20.868L19.9176 20.8635C19.658 19.436 20.143 17.9887 21.1815 17.0025L23.0534 15.1899L20.4223 14.8066C19.0287 14.6025 17.8023 13.7327 17.1646 12.4479L15.994 10.101Z" fill="#13548A"/>
</svg>
