<svg width="25" height="24" viewBox="0 0 25 24" fill="none" xmlns="http://www.w3.org/2000/svg">
<path fillRule="evenodd" clipRule="evenodd" d="M12.0166 0C18.6447 0 24.0166 5.3719 24.0166 12C24.0166 18.6281 18.6447 24 12.0166 24C5.38849 24 0.0166016 18.6281 0.0166016 12C0.0166016 5.3719 5.38849 0 12.0166 0ZM3.70254 16.8099H7.22321C7.61991 18.314 8.18188 19.7521 8.89263 21.0909C6.69428 20.3306 4.85957 18.8099 3.70254 16.8099ZM9.71907 16.8099H14.3306C13.8182 18.5289 13.0414 20.1322 12.0166 21.6033C11.0083 20.1488 10.2149 18.5124 9.70255 16.8099H9.71907ZM16.8265 16.8099H20.3472C19.1901 18.8099 17.3389 20.3306 15.1571 21.0909C15.8844 19.7521 16.4464 18.314 16.8265 16.8099ZM21.3224 14.4132H17.2728C17.4711 12.8264 17.4711 11.2066 17.2728 9.61983H21.3224C21.7191 11.1901 21.7191 12.8595 21.3224 14.4132ZM14.8596 14.4132H9.19014C8.95873 12.8264 8.95873 11.2066 9.19014 9.61983H14.8596C15.091 11.2066 15.091 12.8264 14.8596 14.4132ZM6.77693 14.4132H2.72734C2.33065 12.843 2.33065 11.1736 2.72734 9.61983H6.77693C6.57858 11.2066 6.57858 12.8264 6.77693 14.4132ZM20.3472 7.20661H16.8265C16.4298 5.70248 15.8678 4.26446 15.1571 2.92562C17.3554 3.66942 19.1901 5.20661 20.3472 7.20661ZM14.3306 7.20661H9.71907C10.2315 5.50413 11.0083 3.86777 12.0331 2.41322C13.0414 3.86777 13.8348 5.50413 14.3472 7.20661H14.3306ZM7.22321 7.20661H3.70254C4.85957 5.20661 6.71081 3.66942 8.89263 2.92562C8.16535 4.26446 7.60338 5.70248 7.22321 7.20661Z" fill="#575757"/>
</svg>
