<svg width="24" height="24" viewBox="0 0 24 24" fill="none" xmlns="http://www.w3.org/2000/svg">
<path fillRule="evenodd" clipRule="evenodd" d="M12.0127 3C16.9838 3 21.0127 7.02892 21.0127 12C21.0127 16.9711 16.9838 21 12.0127 21C7.04161 21 3.0127 16.9711 3.0127 12C3.0127 7.02892 7.04161 3 12.0127 3ZM5.77715 15.6074H8.41765C8.71518 16.7355 9.13666 17.814 9.66971 18.8182C8.02095 18.2479 6.64492 17.1074 5.77715 15.6074ZM10.2895 15.6074H13.7482C13.3639 16.8967 12.7813 18.0992 12.0127 19.2025C11.2565 18.1116 10.6615 16.8843 10.2772 15.6074H10.2895ZM15.6201 15.6074H18.2606C17.3928 17.1074 16.0044 18.2479 14.3681 18.8182C14.9135 17.814 15.335 16.7355 15.6201 15.6074ZM18.992 13.8099H15.9548C16.1036 12.6198 16.1036 11.405 15.9548 10.2149H18.992C19.2896 11.3926 19.2896 12.6446 18.992 13.8099ZM14.1449 13.8099H9.89285C9.71929 12.6198 9.71929 11.405 9.89285 10.2149H14.1449C14.3185 11.405 14.3185 12.6198 14.1449 13.8099ZM8.08294 13.8099H5.04575C4.74823 12.6322 4.74823 11.3802 5.04575 10.2149H8.08294C7.93418 11.405 7.93418 12.6198 8.08294 13.8099ZM18.2606 8.40496H15.6201C15.3226 7.27686 14.9011 6.19835 14.3681 5.19421C16.0168 5.75207 17.3928 6.90496 18.2606 8.40496ZM13.7482 8.40496H10.2895C10.6738 7.1281 11.2565 5.90083 12.0251 4.80992C12.7813 5.90083 13.3763 7.1281 13.7606 8.40496H13.7482ZM8.41765 8.40496H5.77715C6.64492 6.90496 8.03335 5.75207 9.66971 5.19421C9.12426 6.19835 8.70278 7.27686 8.41765 8.40496Z" fill="#B86DF3"/>
</svg>