<svg width="24" height="24" viewBox="0 0 24 24" fill="none" xmlns="http://www.w3.org/2000/svg">
<path d="M12.881 4.3103L14.8881 8.33424C15.0328 8.62697 15.3152 8.83067 15.6427 8.87865L20.1384 9.53353C20.4027 9.5706 20.6411 9.70965 20.8008 9.91992C20.9605 10.1302 21.0284 10.3943 20.9894 10.6539C20.9583 10.8691 20.8568 11.0685 20.7004 11.222L17.441 14.378C17.2023 14.6012 17.0937 14.9273 17.152 15.2459L17.9548 19.6881C18.0434 20.2195 17.6889 20.7247 17.152 20.8321C16.9322 20.8666 16.707 20.8307 16.5097 20.7296L12.4957 18.6387C12.1984 18.4884 11.8457 18.4884 11.5484 18.6387L7.53438 20.7296C7.03994 20.9925 6.42223 20.8125 6.15355 20.3272C6.05175 20.1329 6.01521 19.9119 6.04919 19.696L6.85199 15.2538C6.9103 14.9352 6.80171 14.6091 6.56298 14.3859L3.3036 11.2299C3.11239 11.0446 3.00474 10.7916 3.00474 10.5277C3.00474 10.2637 3.11239 10.0108 3.3036 9.82546C3.45764 9.66872 3.66161 9.56849 3.88162 9.54142L8.37732 8.88654C8.70485 8.83856 8.98722 8.63486 9.13196 8.34213L11.0667 4.3103C11.2359 3.96638 11.5933 3.75071 11.9819 3.75799H12.1023C12.4405 3.80015 12.7338 4.00816 12.881 4.3103Z" fill="white"/>
<path d="M12.006 18.5205C11.8302 18.5193 11.6649 18.5772 11.5084 18.6561L7.5071 20.7419C7.02719 20.9837 6.4178 20.7894 6.15361 20.3273C6.05135 20.136 6.01474 19.9174 6.04924 19.704L6.85205 15.2698C6.90596 14.949 6.79821 14.6225 6.56304 14.394L3.29563 11.2379C2.90162 10.8499 2.90162 10.2216 3.29563 9.83349C3.44974 9.68122 3.64956 9.58165 3.86562 9.54945L8.37737 8.88668C8.72505 8.83622 8.97355 8.64398 9.13201 8.34226L11.092 4.26422C11.2414 3.93248 11.7435 3.70322 12.0141 3.75813C12.006 4.02639 12.006 18.339 12.006 18.5205Z" fill="white"/>
</svg>
