<?xml version="1.0" encoding="utf-8"?>
<!-- Generator: Adobe Illustrator 27.2.0, SVG Export Plug-In . SVG Version: 6.00 Build 0)  -->
<svg version="1.1" id="Layer_1" xmlns="http://www.w3.org/2000/svg" xmlns:xlink="http://www.w3.org/1999/xlink" x="0px" y="0px"
	 viewBox="0 0 1417.32 1417.32" style="enable-background:new 0 0 1417.32 1417.32;" xml:space="preserve">
<style type="text/css">
	.st0{fill:#54E4EA;}
	.st1{fill:#003679;}
</style>
<path class="st0" d="M395.12,674.75c0,17.06-13.83,30.88-30.89,30.88c-17.05,0-30.88-13.82-30.88-30.88s13.83-30.89,30.88-30.89
	C381.29,643.86,395.12,657.69,395.12,674.75z"/>
<path class="st1" d="M483.13,498.49l-21.29,44.94c40.07,29.87,66.07,77.62,66.07,131.32c0,90.25-73.43,163.67-163.68,163.67
	S200.56,765,200.56,674.75c0-53.71,26-101.46,66.07-131.32l-21.29-44.94c-56.55,38.27-93.78,103-93.78,176.26
	c0,117.27,95.4,212.67,212.67,212.67s212.68-95.4,212.68-212.67C576.91,601.49,539.67,536.76,483.13,498.49z"/>
<path class="st1" d="M445.12,578.73l-22.19,46.84c11.17,13.32,17.91,30.48,17.91,49.18c0,42.24-34.37,76.6-76.61,76.6
	s-76.6-34.36-76.6-76.6c0-18.7,6.74-35.86,17.91-49.18l-22.19-46.84c-27.33,23.06-44.72,57.55-44.72,96.02
	c0,69.26,56.34,125.6,125.6,125.6s125.61-56.34,125.61-125.6C489.84,636.28,472.45,601.79,445.12,578.73z"/>
<path class="st1" d="M356.23,618.85c-1.26-7.14-5.71-26.78-22.98-42.89c-10.82-10.1-22.27-14.69-29.11-16.82
	c0-39.58,0-79.17,0-118.75c17.36,10.71,34.72,21.41,52.09,32.12C356.23,521.29,356.23,570.07,356.23,618.85z"/>
<path class="st1" d="M372.23,618.85c1.26-7.14,5.71-26.78,22.98-42.89c10.82-10.1,22.27-14.69,29.11-16.82c0-39.58,0-79.17,0-118.75
	c-17.36,10.71-34.72,21.41-52.09,32.12C372.23,521.29,372.23,570.07,372.23,618.85z"/>
</svg>
