<svg width="25" height="25" viewBox="0 0 25 25" fill="none" xmlns="http://www.w3.org/2000/svg">
<path fillRule="evenodd" clipRule="evenodd" d="M6.83471 3.5C5 3.5 3.5 5 3.5 6.83471V8.27273C3.5 10.1074 5 11.6074 6.83471 11.6074H8.28512C10.1198 11.6074 11.6074 10.1074 11.6074 8.28513V6.83471C11.6074 5 10.1074 3.5 8.28512 3.5H6.83471ZM6.83471 13.405C5 13.405 3.5 14.905 3.5 16.7273V18.1777C3.5 20.0124 5 21.5124 6.83471 21.5H8.28512C10.1198 21.5 11.6074 20 11.6074 18.1653V16.7273C11.6074 14.8926 10.1074 13.3926 8.28512 13.3926H6.83471V13.405ZM9.80992 18.1777C9.80992 18.5992 9.63637 18.9835 9.36364 19.2562C9.09091 19.5289 8.70661 19.7025 8.28512 19.7025H6.83471C6.41323 19.7025 6.02893 19.5289 5.7562 19.2562C5.48347 18.9835 5.30992 18.5992 5.30992 18.1777V16.7273C5.30992 16.3058 5.48347 15.9215 5.7562 15.6488C6.02893 15.376 6.41323 15.2025 6.83471 15.2025H8.28512C8.70661 15.2025 9.09091 15.376 9.36364 15.6488C9.63637 15.9215 9.80992 16.3058 9.80992 16.7273V18.1653V18.1777ZM16.7397 13.405C14.905 13.405 13.4174 14.905 13.4174 16.7273V18.1777C13.4174 20.0124 14.9174 21.5124 16.7397 21.5H18.1901C20.0248 21.5 21.5248 20 21.5248 18.1653V16.7273C21.5248 14.8926 20.0248 13.3926 18.1901 13.3926H16.7397V13.405ZM19.7149 18.1777C19.7149 18.5992 19.5413 18.9835 19.2686 19.2562C18.9959 19.5289 18.6116 19.7025 18.1901 19.7025H16.7397C16.3182 19.7025 15.9339 19.5289 15.6612 19.2562C15.3884 18.9835 15.2149 18.5992 15.2149 18.1777V16.7273C15.2149 16.3058 15.3884 15.9215 15.6612 15.6488C15.9339 15.376 16.3182 15.2025 16.7397 15.2025H18.1901C18.6116 15.2025 18.9959 15.376 19.2686 15.6488C19.5413 15.9215 19.7149 16.3058 19.7149 16.7273V18.1653V18.1777ZM16.7397 3.5C14.905 3.5 13.4174 5 13.4174 6.83471V8.27273C13.4174 10.1074 14.9174 11.6074 16.7397 11.6074H18.1901C20.0248 11.6074 21.5248 10.1074 21.5248 8.28513V6.83471C21.5248 5 20.0248 3.5 18.1901 3.5H16.7397ZM19.7149 8.27273C19.7149 8.69422 19.5413 9.07851 19.2686 9.35124C18.9959 9.62397 18.6116 9.79752 18.1901 9.79752H16.7397C16.3182 9.79752 15.9339 9.62397 15.6612 9.35124C15.3884 9.07851 15.2149 8.69422 15.2149 8.27273V6.82231C15.2149 6.40083 15.3884 6.01653 15.6612 5.7438C15.9339 5.47108 16.3182 5.29752 16.7397 5.29752H18.1901C18.6116 5.29752 18.9959 5.47108 19.2686 5.7438C19.5413 6.01653 19.7149 6.40083 19.7149 6.82231V8.26033V8.27273ZM9.80992 8.27273C9.80992 8.69422 9.63637 9.07851 9.36364 9.35124C9.09091 9.62397 8.70661 9.79752 8.28512 9.79752H6.83471C6.41323 9.79752 6.02893 9.62397 5.7562 9.35124C5.48347 9.07851 5.30992 8.69422 5.30992 8.27273V6.82231C5.30992 6.40083 5.48347 6.01653 5.7562 5.7438C6.02893 5.47108 6.41323 5.29752 6.83471 5.29752H8.28512C8.70661 5.29752 9.09091 5.47108 9.36364 5.7438C9.63637 6.01653 9.80992 6.40083 9.80992 6.82231V8.26033V8.27273Z" fill="#2C93D6"/>
</svg>
