<svg width="33" height="33" viewBox="0 0 33 33" fill="none" xmlns="http://www.w3.org/2000/svg">
<path fillRule="evenodd" clipRule="evenodd" d="M3.37111 15.6793H28.7265C29.5033 15.6793 30.1314 15.1338 30.1314 14.4726C30.1314 14.1421 29.9662 13.8445 29.7182 13.6297L25.2554 9.16686V6.00983C25.2554 5.34868 24.7099 4.80322 24.0488 4.80322H8.01574C7.35458 4.80322 6.80913 5.34868 6.80913 6.00983V9.16686L2.34633 13.6297C2.09839 13.8445 1.93311 14.1421 1.93311 14.4726C1.93311 15.1338 2.56119 15.6793 3.33805 15.6793H3.37111ZM13.1232 22.8859H9.51988C8.85872 22.8859 8.31327 22.3404 8.31327 21.6793V18.0759C8.31327 17.4148 8.85872 16.8693 9.51988 16.8693H13.1232C13.7843 16.8693 14.3298 17.4148 14.3298 18.0759V21.6793C14.3298 22.3404 13.7843 22.8859 13.1232 22.8859ZM10.7265 20.4892H11.9331V19.2826H10.7265V20.4892ZM5.23889 28.8198H17.2389C17.9 28.8198 18.4455 28.2743 18.4455 27.6131V21.6131H20.8422V27.6131C20.8422 28.2743 21.3876 28.8198 22.0488 28.8198H26.8422C27.5033 28.8198 28.0488 28.2743 28.0488 27.6131V18.0759C28.0488 17.4148 27.5033 16.8693 26.8422 16.8693C26.181 16.8693 25.6356 17.4148 25.6356 18.0759V26.4065H23.0901L23.2223 20.4065C23.2223 19.7454 22.6769 19.1999 22.0157 19.1999H17.2224C16.5612 19.1999 16.0157 19.7454 16.0157 20.4065V26.4065H6.41243V18.0759C6.41243 17.4148 5.86698 16.8693 5.20583 16.8693C4.54467 16.8693 3.99922 17.4148 3.99922 18.0759V27.6131C3.99922 28.2743 4.54467 28.8198 5.20583 28.8198H5.23889ZM9.22237 7.21645H22.8422V8.48917H9.22237V7.21645ZM8.51161 10.8859H23.5529L25.9496 13.2826H6.09838L8.49509 10.8859H8.51161Z" fill="#575757"/>
</svg>
