<svg width="24" height="25" viewBox="0 0 24 25" fill="none" xmlns="http://www.w3.org/2000/svg">
<path fillRule="evenodd" clipRule="evenodd" d="M2.49159 11.657H21.5081C22.0908 11.657 22.5618 11.2479 22.5618 10.7521C22.5618 10.5041 22.4379 10.281 22.2519 10.1198L18.9048 6.77273V4.40496C18.9048 3.90909 18.4957 3.5 17.9998 3.5H5.97506C5.47919 3.5 5.07011 3.90909 5.07011 4.40496V6.77273L1.723 10.1198C1.53705 10.281 1.41309 10.5041 1.41309 10.7521C1.41309 11.2479 1.88415 11.657 2.46679 11.657H2.49159ZM9.80563 17.062H7.10316C6.6073 17.062 6.19821 16.6529 6.19821 16.157V13.4545C6.19821 12.9587 6.6073 12.5496 7.10316 12.5496H9.80563C10.3015 12.5496 10.7106 12.9587 10.7106 13.4545V16.157C10.7106 16.6529 10.3015 17.062 9.80563 17.062ZM8.00812 15.2645H8.91309V14.3595H8.00812V15.2645ZM3.89242 21.5124H12.8924C13.3883 21.5124 13.7974 21.1033 13.7974 20.6074V16.1074H15.5949V20.6074C15.5949 21.1033 16.004 21.5124 16.4999 21.5124H20.0949C20.5908 21.5124 20.9999 21.1033 20.9999 20.6074V13.4545C20.9999 12.9587 20.5908 12.5496 20.0949 12.5496C19.599 12.5496 19.1899 12.9587 19.1899 13.4545V19.7025H17.2809L17.38 15.2025C17.38 14.7066 16.9709 14.2975 16.4751 14.2975H12.88C12.3842 14.2975 11.9751 14.7066 11.9751 15.2025V19.7025H4.77258V13.4545C4.77258 12.9587 4.36349 12.5496 3.86763 12.5496C3.37176 12.5496 2.96267 12.9587 2.96267 13.4545V20.6074C2.96267 21.1033 3.37176 21.5124 3.86763 21.5124H3.89242ZM6.88003 5.30992H17.0949V6.26446H6.88003V5.30992ZM6.34696 8.06198H17.628L19.4255 9.85951H4.53704L6.33458 8.06198H6.34696Z" fill="#2C93D6"/>
</svg>
