<svg width="32" height="32" viewBox="0 0 32 32" fill="none" xmlns="http://www.w3.org/2000/svg">
<path fillRule="evenodd" clipRule="evenodd" d="M25.6032 23.5536C25.6032 24.1156 25.3718 24.628 25.0082 24.9916C24.6446 25.3552 24.1322 25.5866 23.5702 25.5866H8.4462C7.88422 25.5866 7.37183 25.3552 7.00819 24.9916C6.64455 24.628 6.41315 24.1156 6.41315 23.5536V8.42961C6.41315 7.86763 6.64455 7.35523 7.00819 6.99159C7.37183 6.62796 7.88422 6.39655 8.4462 6.39655H9.95034V16.6775C9.95034 17.3387 10.4958 17.8842 11.157 17.8842C11.4875 17.8842 11.785 17.7519 11.9999 17.5371L15.9669 13.5866L19.9008 17.504C20.1156 17.7189 20.4132 17.8511 20.7437 17.8511C21.4049 17.8511 21.9503 17.3056 21.9503 16.6445V6.38003H23.5702C24.1322 6.38003 24.6446 6.61142 25.0082 6.97506C25.3718 7.3387 25.6032 7.8511 25.6032 8.41308V23.5371V23.5536ZM9.95034 21.9833C9.95034 21.3222 10.4958 20.7767 11.157 20.7767H20.7603C21.4214 20.7767 21.9669 21.3222 21.9669 21.9833C21.9669 22.6445 21.4214 23.1899 20.7603 23.1899H11.157C10.8264 23.1899 10.5289 23.0577 10.314 22.8428C10.0991 22.628 9.96687 22.3304 9.96687 21.9999L9.95034 21.9833ZM12.347 6.38003H19.5536V13.7519L17.6528 11.8676C16.7272 10.942 15.2065 10.942 14.2644 11.8676L12.347 13.785V6.39655V6.38003ZM27.9999 8.41308C27.9999 5.9668 25.9999 3.9668 23.5536 3.9668H8.42968C5.9834 3.9668 3.9834 5.9668 3.9834 8.41308V23.5371C3.9834 25.818 5.73546 27.7189 7.96687 27.9668L23.5536 27.9833C25.9999 27.9833 27.9999 25.9833 27.9999 23.5371V8.41308Z" fill="white"/>
</svg>
