<svg width="24" height="25" viewBox="0 0 24 25" fill="none" xmlns="http://www.w3.org/2000/svg">
<path fillRule="evenodd" clipRule="evenodd" d="M5.24399 14.7553H18.744C19.9837 14.7553 21.0002 13.7514 21.0002 12.4995C21.0002 11.26 19.9961 10.2437 18.744 10.2437H5.24399C4.00432 10.2437 2.98779 11.2476 2.98779 12.4995C2.98779 13.739 3.99193 14.7553 5.24399 14.7553ZM18.744 12.9581H5.24399C4.99606 12.9581 4.79771 12.7598 4.79771 12.5119C4.79771 12.264 4.99606 12.0657 5.24399 12.0657H18.744C18.9919 12.0657 19.1903 12.264 19.1903 12.5119C19.1903 12.7598 18.9919 12.9581 18.744 12.9581Z" fill="white"/>
<path fillRule="evenodd" clipRule="evenodd" d="M5.24399 21.5117H18.744C19.9837 21.5117 21.0002 20.5077 21.0002 19.2558C21.0002 18.0164 19.9961 17 18.744 17H5.24399C4.00432 17 2.98779 18.004 2.98779 19.2558C2.98779 20.4953 3.99193 21.5117 5.24399 21.5117ZM18.744 19.7145H5.24399C4.99606 19.7145 4.79771 19.5161 4.79771 19.2682C4.79771 19.0203 4.99606 18.822 5.24399 18.822H18.744C18.9919 18.822 19.1903 19.0203 19.1903 19.2682C19.1903 19.5161 18.9919 19.7145 18.744 19.7145Z" fill="white"/>
<path fillRule="evenodd" clipRule="evenodd" d="M5.24399 8.01169H12.4465C13.6861 8.01169 14.7027 7.00771 14.7027 5.75584C14.7027 4.51637 13.6985 3.5 12.4465 3.5H5.24399C4.00432 3.5 2.98779 4.50397 2.98779 5.75584C2.98779 6.99532 3.99193 8.01169 5.24399 8.01169ZM12.4465 6.21445H5.24399C4.99606 6.21445 4.79771 6.01613 4.79771 5.76824C4.79771 5.52034 4.99606 5.32203 5.24399 5.32203H12.4465C12.6944 5.32203 12.8928 5.52034 12.8928 5.76824C12.8928 6.01613 12.6944 6.21445 12.4465 6.21445Z" fill="white"/>
<path fillRule="evenodd" clipRule="evenodd" d="M18.756 3.5C17.5165 3.5 16.5001 4.50397 16.5001 5.75584C16.5001 6.99532 17.5041 8.01169 18.756 8.01169C19.9954 8.01169 21.0118 7.00771 21.0118 5.75584C21.0118 4.51637 20.0078 3.5 18.756 3.5ZM18.3098 5.75584C18.3098 5.50795 18.5081 5.30963 18.756 5.30963C19.0039 5.30963 19.2022 5.50795 19.2022 5.75584C19.2022 6.00374 19.0039 6.20205 18.756 6.20205C18.5081 6.20205 18.3098 6.00374 18.3098 5.75584Z" fill="white"/>
</svg>
