<svg width="20" height="20" viewBox="0 0 20 20" fill="none" xmlns="http://www.w3.org/2000/svg">
<path d="M10 13.5C10.972 13.5 11.7983 13.1597 12.479 12.479C13.1597 11.7983 13.5 10.972 13.5 10C13.5 9.028 13.1597 8.20167 12.479 7.521C11.7983 6.84033 10.972 6.5 10 6.5C9.028 6.5 8.20167 6.84033 7.521 7.521C6.84033 8.20167 6.5 9.028 6.5 10C6.5 10.972 6.84033 11.7983 7.521 12.479C8.20167 13.1597 9.028 13.5 10 13.5ZM10 12C9.44467 12 8.97233 11.8057 8.583 11.417C8.19433 11.0277 8 10.5553 8 10C8 9.44467 8.19433 8.97233 8.583 8.583C8.97233 8.19433 9.44467 8 10 8C10.5553 8 11.0277 8.19433 11.417 8.583C11.8057 8.97233 12 9.44467 12 10C12 10.5553 11.8057 11.0277 11.417 11.417C11.0277 11.8057 10.5553 12 10 12ZM10 16C8.014 16 6.20833 15.455 4.583 14.365C2.95833 13.2743 1.764 11.8193 1 10C1.764 8.18067 2.95833 6.72567 4.583 5.635C6.20833 4.545 8.014 4 10 4C11.986 4 13.7917 4.545 15.417 5.635C17.0417 6.72567 18.236 8.18067 19 10C18.236 11.8193 17.0417 13.2743 15.417 14.365C13.7917 15.455 11.986 16 10 16Z" fill="#2C93D6"/>
</svg>
