<svg width="25" height="25" viewBox="0 0 25 25" fill="none" xmlns="http://www.w3.org/2000/svg">
<path fillRule="evenodd" clipRule="evenodd" d="M9.11895 3.5H15.6024C18.776 3.5 21.3669 6.09091 21.3669 9.26447V15.7479C21.3669 18.9215 18.776 21.5124 15.6024 21.5124H9.11895C5.94539 21.5124 3.35449 18.9215 3.35449 15.7479V9.26447C3.35449 6.09091 5.94539 3.5 9.11895 3.5ZM11.276 13.9628L5.15201 10.4298V15.7355C5.15201 16.8264 5.59829 17.8182 6.3173 18.5248C7.03631 19.2438 8.02804 19.6901 9.11895 19.6901H15.6024C16.6933 19.6901 17.6851 19.2438 18.3917 18.5248C19.1107 17.8058 19.557 16.814 19.557 15.7355V10.4298L13.433 13.9628C12.7512 14.3595 11.9578 14.3595 11.276 13.9628ZM5.25118 8.40909L11.8214 12.2025C12.1685 12.4008 12.5528 12.4008 12.8999 12.2025L19.4702 8.40909C19.309 7.66529 18.9247 6.99587 18.4041 6.46281C17.6851 5.7438 16.6933 5.29752 15.6148 5.29752H9.13136C8.04045 5.29752 7.0487 5.7438 6.32969 6.46281C5.80903 6.98347 5.42473 7.65289 5.26357 8.40909H5.25118Z" fill="white"/>
</svg>