<svg width="24" height="24" viewBox="0 0 24 24" fill="none" xmlns="http://www.w3.org/2000/svg">
<path d="M19.1766 14.4155C18.4687 14.4202 17.7707 14.5816 17.1327 14.8882C16.4947 15.1948 15.9325 15.6389 15.4866 16.1886L9.37644 13.3732C9.66372 12.4935 9.66372 11.5452 9.37644 10.6656L15.4866 7.85012C16.2073 8.71987 17.2122 9.30705 18.3237 9.50804C19.4353 9.70903 20.5822 9.5109 21.5619 8.94862C22.5416 8.38634 23.2912 7.49606 23.6784 6.43489C24.0656 5.37373 24.0655 4.2099 23.6781 3.14881C23.2907 2.08771 22.5409 1.19756 21.5611 0.635463C20.5813 0.0733627 19.4344 -0.124557 18.3229 0.0766338C17.2114 0.277825 16.2066 0.865193 15.486 1.73508C14.7654 2.60496 14.3752 3.70144 14.3843 4.831C14.3879 5.11641 14.416 5.401 14.4682 5.68162L8.14243 8.59291C7.46802 7.93347 6.614 7.48772 5.68737 7.3115C4.76074 7.13528 3.80271 7.23643 2.93332 7.60227C2.06392 7.96812 1.32182 8.58239 0.799985 9.36813C0.278154 10.1539 -0.000198364 11.0761 -0.000198364 12.0194C-0.000198364 12.9626 0.278154 13.8849 0.799985 14.6706C1.32182 15.4564 2.06392 16.0706 2.93332 16.4365C3.80271 16.8023 4.76074 16.9035 5.68737 16.7272C6.614 16.551 7.46802 16.1053 8.14243 15.4458L14.4682 18.3571C14.416 18.6377 14.3879 18.9223 14.3843 19.2077C14.3843 20.1556 14.6654 21.0821 15.192 21.8702C15.7186 22.6583 16.467 23.2725 17.3427 23.6352C18.2183 23.9979 19.1819 24.0928 20.1115 23.9079C21.0411 23.723 21.895 23.2666 22.5652 22.5964C23.2354 21.9262 23.6918 21.0723 23.8768 20.1427C24.0617 19.2131 23.9668 18.2495 23.604 17.3738C23.2413 16.4982 22.6271 15.7497 21.839 15.2231C21.0509 14.6966 20.1244 14.4155 19.1766 14.4155ZM19.1766 2.43487C19.6505 2.43487 20.1138 2.5754 20.5078 2.83869C20.9018 3.10198 21.209 3.4762 21.3903 3.91404C21.5717 4.35187 21.6191 4.83365 21.5267 5.29846C21.4342 5.76326 21.206 6.19021 20.8709 6.52531C20.5358 6.86042 20.1089 7.08863 19.644 7.18108C19.1792 7.27354 18.6975 7.22608 18.2596 7.04473C17.8218 6.86337 17.4476 6.55625 17.1843 6.16221C16.921 5.76817 16.7805 5.30491 16.7805 4.831C16.7805 4.1955 17.0329 3.58604 17.4823 3.13668C17.9316 2.68732 18.5411 2.43487 19.1766 2.43487ZM4.79984 14.4155C4.32593 14.4155 3.86266 14.275 3.46862 14.0117C3.07458 13.7484 2.76746 13.3742 2.58611 12.9363C2.40475 12.4985 2.3573 12.0167 2.44975 11.5519C2.54221 11.0871 2.77042 10.6602 3.10552 10.3251C3.44062 9.98995 3.86757 9.76174 4.33238 9.66929C4.79718 9.57683 5.27896 9.62428 5.71679 9.80564C6.15463 9.987 6.52885 10.2941 6.79214 10.6882C7.05543 11.0822 7.19596 11.5455 7.19596 12.0194C7.19596 12.6549 6.94351 13.2643 6.49415 13.7137C6.04479 14.163 5.43533 14.4155 4.79984 14.4155ZM19.1766 21.6039C18.7027 21.6039 18.2394 21.4633 17.8454 21.2001C17.4513 20.9368 17.1442 20.5625 16.9629 20.1247C16.7815 19.6869 16.734 19.2051 16.8265 18.7403C16.919 18.2755 17.1472 17.8485 17.4823 17.5134C17.8174 17.1783 18.2443 16.9501 18.7091 16.8577C19.1739 16.7652 19.6557 16.8127 20.0935 16.994C20.5314 17.1754 20.9056 17.4825 21.1689 17.8765C21.4322 18.2706 21.5727 18.7338 21.5727 19.2077C21.5727 19.8432 21.3203 20.4527 20.8709 20.9021C20.4215 21.3514 19.8121 21.6039 19.1766 21.6039Z" fill="#B86DF3"/>
</svg>
