<svg width="96" height="96" viewBox="0 0 96 96" fill="none" xmlns="http://www.w3.org/2000/svg">
<path d="M69.1253 17.7025H27.8195C22.3149 17.7025 17.8525 21.0548 17.8525 25.1901V70.8596C17.8525 74.9949 22.3149 78.3471 27.8195 78.3471H69.1253C74.6298 78.3471 79.0922 74.9949 79.0922 70.8596V25.1901C79.0922 21.0548 74.6298 17.7025 69.1253 17.7025Z" fill="#37C9EE"/>
<path fillRule="evenodd" clipRule="evenodd" d="M21.3732 17.7024H39.3732V78.347H21.3732C19.4393 78.347 17.8525 76.7602 17.8525 74.8263V21.1734C17.8525 19.2396 19.4393 17.6527 21.3732 17.6527V17.7024Z" fill="#2C93D6"/>
<path fillRule="evenodd" clipRule="evenodd" d="M30.0506 48.0495C30.0506 50.0329 31.687 51.6693 33.6704 51.6693H39.3729L35.3564 55.6858C33.968 57.0742 33.968 59.3552 35.3564 60.7932C36.7448 62.1817 39.0258 62.1817 40.4638 60.7932L44.4803 56.7767V62.4792C44.4803 64.4627 46.1167 66.0991 48.1001 66.0991C50.0836 66.0991 51.72 64.4627 51.72 62.4792V56.7767L55.7365 60.7932C57.125 62.1817 59.406 62.1817 60.844 60.7932C62.2324 59.4048 62.2324 57.1238 60.844 55.6858L56.8275 51.6693H62.5299C64.5134 51.6693 66.1497 50.0329 66.1497 48.0495C66.1497 46.066 64.5134 44.4297 62.5299 44.4297H56.8275L60.844 40.4131C62.2324 39.0247 62.2324 36.7436 60.844 35.3056C59.4555 33.9172 57.1746 33.9172 55.7365 35.3056L51.72 39.3222V33.6197C51.72 31.6362 50.0836 29.9999 48.1001 29.9999C46.1167 29.9999 44.4803 31.6362 44.4803 33.6197V39.3222L40.4638 35.3056C39.0754 33.9172 36.7944 33.9172 35.3564 35.3056C33.968 36.6941 33.968 38.9751 35.3564 40.4131L39.3729 44.4297H33.6704C31.687 44.4297 30.0506 46.066 30.0506 48.0495ZM76.8605 70.7602C76.8605 72.4462 76.1663 73.9833 75.0754 75.0742C73.9844 76.1652 72.4473 76.8594 70.7613 76.8594H25.3894C23.7034 76.8594 22.1663 76.1652 21.0754 75.0742C19.9845 73.9833 19.2902 72.4462 19.2902 70.7602V25.3883C19.2902 23.7023 19.9845 22.1652 21.0754 21.0743C22.1663 19.9833 23.7034 19.2891 25.3894 19.2891H70.7613C72.4473 19.2891 73.9844 19.9833 75.0754 21.0743C76.1663 22.1652 76.8605 23.7023 76.8605 25.3883V70.7602ZM84.0506 25.3883C84.0506 18.0494 78.0505 12.0495 70.7117 12.0495H25.3398C18.001 12.0495 12.001 18.0494 12.001 25.3883V70.7602C12.001 77.6032 17.2572 83.3056 23.9514 84.0494L70.7117 84.0991C78.0505 84.0991 84.0506 78.0991 84.0506 70.7602V25.3883Z" fill="#121212"/>
</svg>
