<svg width="24" height="24" viewBox="0 0 24 24" fill="none" xmlns="http://www.w3.org/2000/svg">
<path fillRule="evenodd" clipRule="evenodd" d="M17.6654 19.2025H6.32244C5.90095 19.2025 5.51666 19.0289 5.24393 18.7562C4.9712 18.4835 4.79765 18.0992 4.79765 17.6777V14.4174C4.79765 14.1694 4.996 13.9711 5.24393 13.9711C6.4836 13.9711 7.50013 12.9669 7.50013 11.7149V11.6405C7.76046 11.5537 8.00839 11.4174 8.20674 11.219C8.52905 10.8967 8.715 10.4628 8.715 10.0041V8.83884C9.79352 8.6033 10.8968 8.47935 12.0001 8.47935C13.1034 8.47935 14.2067 8.6033 15.2853 8.83884V10.0041C15.2853 10.4628 15.4712 10.8967 15.7935 11.219C15.9919 11.4174 16.2398 11.5661 16.5001 11.6405V11.7149C16.5001 12.9546 17.5043 13.9711 18.7563 13.9711C19.0043 13.9711 19.2026 14.1694 19.2026 14.4174V17.6777C19.2026 18.0992 19.0291 18.4835 18.7563 18.7562C18.4836 19.0289 18.0993 19.2025 17.6778 19.2025H17.6654ZM18.2977 11.7149H19.2894C19.7481 11.7149 20.1819 11.5413 20.4919 11.219C20.8142 10.8967 21.0001 10.4628 21.0001 10.0041V8.00827C20.9629 6.90496 20.4175 5.88843 19.5373 5.21901C17.8886 3.83058 15.0745 3 12.0125 3C8.95054 3 6.1117 3.84298 4.45054 5.21901C3.59517 5.9876 3.02492 6.81818 2.98773 8.00827V10.0041C2.98773 10.4628 3.17368 10.8967 3.496 11.219C3.81831 11.5413 4.25219 11.7273 4.69848 11.7149H5.69021C5.69021 11.9628 5.49186 12.1612 5.24393 12.1612C4.00426 12.1612 2.98773 13.1653 2.98773 14.4174V17.6777C2.98773 19.5124 4.48773 21.0124 6.32244 21.0124H17.6654C19.5001 21.0124 21.0001 19.5124 21.0001 17.6777V14.4174C21.0001 13.1777 19.996 12.1612 18.7439 12.1612C18.496 12.1612 18.2977 11.9628 18.2977 11.7149ZM12.0001 10.2025C13.9836 10.2025 15.6076 11.814 15.6076 13.7975C15.6076 15.781 13.996 17.3926 12.0001 17.3926C10.0167 17.3926 8.40509 15.781 8.40509 13.7975C8.40509 11.814 10.0167 10.2025 12.0001 10.2025ZM12.0001 12C12.9919 12 13.7976 12.8058 13.7976 13.7975C13.7976 14.7893 12.9919 15.595 12.0001 15.595C11.0084 15.595 10.2026 14.7893 10.2026 13.7975C10.2026 12.8058 11.0084 12 12.0001 12ZM17.0828 8.82645V9.91736H19.2026V8.05785C19.1902 7.78513 19.1158 7.5124 18.9919 7.26447C18.8679 7.02893 18.6943 6.81818 18.4588 6.64463C17.5291 5.95042 16.9464 5.6405 15.8059 5.2934C14.6654 4.95869 13.3638 4.77273 12.0125 4.77273C10.6613 4.77273 9.37203 4.95869 8.23153 5.2934C7.17781 5.60331 6.29765 6.0248 5.65302 6.53307C5.3679 6.7934 5.13236 7.05372 4.9836 7.31405C4.87203 7.5248 4.79765 7.76034 4.78525 8.03306V9.89257H6.90509V8.80165C6.90509 7.8843 7.58691 7.12811 8.47947 7.01654C9.03732 6.89257 9.59517 6.80579 10.153 6.74381C10.7481 6.68182 11.3555 6.64463 12.0001 6.64463C12.6324 6.64463 13.2522 6.68182 13.8472 6.74381C14.4423 6.80579 15.0621 6.91736 15.6819 7.05372C16.5249 7.23967 17.0828 7.98347 17.0952 8.80165L17.0828 8.82645Z" fill="#B86DF3"/>
</svg>
