<svg width="24" height="24" viewBox="0 0 24 24" fill="none" xmlns="http://www.w3.org/2000/svg">
<path fillRule="evenodd" clipRule="evenodd" d="M17.6655 19.2025H6.3225C5.90102 19.2025 5.51672 19.0289 5.24399 18.7562C4.97126 18.4835 4.79771 18.0992 4.79771 17.6777V14.4174C4.79771 14.1694 4.99606 13.9711 5.24399 13.9711C6.48366 13.9711 7.50019 12.9669 7.50019 11.7149V11.6405C7.76052 11.5537 8.00845 11.4174 8.2068 11.219C8.52912 10.8967 8.71507 10.4628 8.71507 10.0041V8.83884C9.79358 8.6033 10.8969 8.47935 12.0002 8.47935C13.1035 8.47935 14.2068 8.6033 15.2853 8.83884V10.0041C15.2853 10.4628 15.4713 10.8967 15.7936 11.219C15.9919 11.4174 16.2399 11.5661 16.5002 11.6405V11.7149C16.5002 12.9546 17.5043 13.9711 18.7564 13.9711C19.0043 13.9711 19.2027 14.1694 19.2027 14.4174V17.6777C19.2027 18.0992 19.0291 18.4835 18.7564 18.7562C18.4837 19.0289 18.0994 19.2025 17.6779 19.2025H17.6655ZM18.2977 11.7149H19.2894C19.7481 11.7149 20.182 11.5413 20.4919 11.219C20.8142 10.8967 21.0002 10.4628 21.0002 10.0041V8.00827C20.963 6.90496 20.4175 5.88843 19.5374 5.21901C17.8886 3.83058 15.0746 3 12.0126 3C8.9506 3 6.11176 3.84298 4.4506 5.21901C3.59523 5.9876 3.02498 6.81818 2.98779 8.00827V10.0041C2.98779 10.4628 3.17374 10.8967 3.49606 11.219C3.81837 11.5413 4.25226 11.7273 4.69854 11.7149H5.69027C5.69027 11.9628 5.49193 12.1612 5.24399 12.1612C4.00432 12.1612 2.98779 13.1653 2.98779 14.4174V17.6777C2.98779 19.5124 4.48779 21.0124 6.3225 21.0124H17.6655C19.5002 21.0124 21.0002 19.5124 21.0002 17.6777V14.4174C21.0002 13.1777 19.9961 12.1612 18.744 12.1612C18.4961 12.1612 18.2977 11.9628 18.2977 11.7149ZM12.0002 10.2025C13.9837 10.2025 15.6076 11.814 15.6076 13.7975C15.6076 15.781 13.9961 17.3926 12.0002 17.3926C10.0167 17.3926 8.40515 15.781 8.40515 13.7975C8.40515 11.814 10.0167 10.2025 12.0002 10.2025ZM12.0002 12C12.9919 12 13.7977 12.8058 13.7977 13.7975C13.7977 14.7893 12.9919 15.595 12.0002 15.595C11.0085 15.595 10.2027 14.7893 10.2027 13.7975C10.2027 12.8058 11.0085 12 12.0002 12ZM17.0828 8.82645V9.91736H19.2027V8.05785C19.1903 7.78513 19.1159 7.5124 18.9919 7.26447C18.868 7.02893 18.6944 6.81818 18.4589 6.64463C17.5291 5.95042 16.9465 5.6405 15.806 5.2934C14.6655 4.95869 13.3638 4.77273 12.0126 4.77273C10.6613 4.77273 9.37209 4.95869 8.23159 5.2934C7.17788 5.60331 6.29771 6.0248 5.65308 6.53307C5.36796 6.7934 5.13242 7.05372 4.98366 7.31405C4.87209 7.5248 4.79771 7.76034 4.78531 8.03306V9.89257H6.90515V8.80165C6.90515 7.8843 7.58697 7.12811 8.47953 7.01654C9.03738 6.89257 9.59523 6.80579 10.1531 6.74381C10.7481 6.68182 11.3556 6.64463 12.0002 6.64463C12.6324 6.64463 13.2523 6.68182 13.8473 6.74381C14.4423 6.80579 15.0622 6.91736 15.682 7.05372C16.525 7.23967 17.0828 7.98347 17.0952 8.80165L17.0828 8.82645Z" fill="#575757"/>
</svg>
