<svg width="25" height="25" viewBox="0 0 25 25" fill="none" xmlns="http://www.w3.org/2000/svg">
<path d="M4.62982 21.4352H4.73107L9.42237 21.0077C9.93627 20.9565 10.4169 20.7301 10.7836 20.3665L20.9087 10.2413C21.3017 9.82618 21.5141 9.27216 21.4994 8.70068C21.4846 8.12921 21.2439 7.58689 20.83 7.19256L17.7475 4.11003C17.3451 3.73213 16.818 3.5153 16.2662 3.50078C15.7144 3.48626 15.1766 3.67506 14.7549 4.03128L4.62982 14.1564C4.26617 14.5231 4.03975 15.0038 3.98856 15.5177L3.5048 20.209C3.48965 20.3737 3.51103 20.5398 3.56742 20.6954C3.62382 20.851 3.71383 20.9922 3.83106 21.109C3.93618 21.2132 4.06085 21.2957 4.19792 21.3517C4.33499 21.4077 4.48176 21.4361 4.62982 21.4352ZM16.1837 5.68505L19.255 8.75633L17.005 10.9501L13.9899 7.93507L16.1837 5.68505ZM6.17108 15.7089L12.5049 9.42009L15.5424 12.4576L9.24237 18.7577L5.86733 19.0727L6.17108 15.7089Z" fill="white"/>
</svg>