<svg width="24" height="24" viewBox="0 0 24 24" fill="none" xmlns="http://www.w3.org/2000/svg">
<path d="M4.12974 20.9352H4.23099L8.92229 20.5077C9.4362 20.4565 9.91684 20.2301 10.2836 19.8665L20.4087 9.74135C20.8017 9.32618 21.014 8.77216 20.9993 8.20068C20.9845 7.62921 20.7438 7.08689 20.3299 6.69256L17.2474 3.61003C16.8451 3.23213 16.3179 3.0153 15.7661 3.00078C15.2143 2.98626 14.6765 3.17506 14.2549 3.53128L4.12974 13.6564C3.7661 14.0231 3.53968 14.5038 3.48848 15.0177L3.00473 19.709C2.98957 19.8737 3.01095 20.0398 3.06735 20.1954C3.12374 20.351 3.21376 20.4922 3.33098 20.609C3.4361 20.7132 3.56077 20.7957 3.69784 20.8517C3.83491 20.9077 3.98168 20.9361 4.12974 20.9352ZM15.6836 5.18505L18.7549 8.25633L16.5049 10.4501L13.4898 7.43507L15.6836 5.18505ZM5.67101 15.2089L12.0048 8.92009L15.0424 11.9576L8.74229 18.2577L5.36725 18.5727L5.67101 15.2089Z" fill="#B86DF3"/>
</svg>