<svg width="24" height="24" viewBox="0 0 24 24" fill="none" xmlns="http://www.w3.org/2000/svg">
<path fillRule="evenodd" clipRule="evenodd" d="M9.29749 17.405H14.7025C15.1983 17.405 15.6074 16.9959 15.6074 16.5C15.6074 16.0041 15.1983 15.595 14.7025 15.595H9.29749C8.80162 15.595 8.39252 16.0041 8.39252 16.5C8.39252 16.9959 8.80162 17.405 9.29749 17.405ZM9.29749 13.8099H14.7025C15.1983 13.8099 15.6074 13.4008 15.6074 12.905C15.6074 12.4091 15.1983 12 14.7025 12H9.29749C8.80162 12 8.39252 12.4091 8.39252 12.905C8.39252 13.4008 8.80162 13.8099 9.29749 13.8099ZM12.9049 4.80992V7.5124C12.9049 8.50413 13.7107 9.30991 14.7025 9.30991H17.4049V18.7562C17.4049 19.0041 17.2066 19.2025 16.9586 19.2025H7.05369C6.80576 19.2025 6.60741 19.0041 6.60741 18.7562V5.2562C6.60741 5.00826 6.80576 4.80992 7.05369 4.80992H12.9049ZM19.2024 8.40496L13.7975 3H7.04128C5.80161 3 4.7851 4.00413 4.7851 5.2562V18.7562C4.7851 19.9959 5.78922 21.0124 7.04128 21.0124H16.9462C18.1859 21.0124 19.2024 20.0083 19.2024 18.7562V8.40496Z" fill="#B86DF3"/>
</svg>
