<svg width="25" height="25" viewBox="0 0 25 25" fill="none" xmlns="http://www.w3.org/2000/svg">
<path fillRule="evenodd" clipRule="evenodd" d="M9.79755 17.905H15.2025C15.6984 17.905 16.1075 17.4959 16.1075 17C16.1075 16.5041 15.6984 16.095 15.2025 16.095H9.79755C9.30168 16.095 8.89258 16.5041 8.89258 17C8.89258 17.4959 9.30168 17.905 9.79755 17.905ZM9.79755 14.3099H15.2025C15.6984 14.3099 16.1075 13.9008 16.1075 13.405C16.1075 12.9091 15.6984 12.5 15.2025 12.5H9.79755C9.30168 12.5 8.89258 12.9091 8.89258 13.405C8.89258 13.9008 9.30168 14.3099 9.79755 14.3099ZM13.405 5.30992V8.0124C13.405 9.00413 14.2108 9.80991 15.2025 9.80991H17.905V19.2562C17.905 19.5041 17.7066 19.7025 17.4587 19.7025H7.55375C7.30582 19.7025 7.10747 19.5041 7.10747 19.2562V5.7562C7.10747 5.50826 7.30582 5.30992 7.55375 5.30992H13.405ZM19.7025 8.90496L14.2975 3.5H7.54134C6.30168 3.5 5.28516 4.50413 5.28516 5.7562V19.2562C5.28516 20.4959 6.28928 21.5124 7.54134 21.5124H17.4463C18.686 21.5124 19.7025 20.5083 19.7025 19.2562V8.90496Z" fill="#2C93D6"/>
</svg>
