<svg width="25" height="25" viewBox="0 0 25 25" fill="none" xmlns="http://www.w3.org/2000/svg">
<path fillRule="evenodd" clipRule="evenodd" d="M12.4997 3.5C9.5121 3.5 7.09474 5.91736 7.09474 8.90496C7.09474 10.3182 7.6402 11.595 8.52036 12.562C5.68152 12.9587 3.4873 15.4008 3.4873 18.3512V20.6074C3.4873 21.1033 3.8964 21.5124 4.39226 21.5124C4.88813 21.5124 5.29722 21.1033 5.29722 20.6074V18.3512C5.29722 16.1198 7.10714 14.2975 9.35094 14.2975H12.4997H15.6485C17.8799 14.2975 19.7022 16.1074 19.7022 18.3512V20.6074C19.7022 21.1033 20.1113 21.5124 20.6071 21.5124C21.103 21.5124 21.5121 21.1033 21.5121 20.6074V18.3512C21.5121 15.4008 19.3303 12.9587 16.479 12.562C17.3592 11.595 17.9047 10.3182 17.9047 8.90496C17.9047 5.91736 15.4873 3.5 12.4997 3.5ZM17.9047 21.5C18.4005 21.5 18.8096 21.0909 18.8096 20.595C18.8096 20.0992 18.4005 19.6901 17.9047 19.6901C14.3096 19.6901 10.7022 19.6901 7.10714 19.6901C6.61127 19.6901 6.20218 20.0992 6.20218 20.595C6.20218 21.0909 6.61127 21.5 7.10714 21.5C10.7022 21.5 14.3096 21.5 17.9047 21.5ZM12.4997 5.29752C10.5162 5.29752 8.90466 6.90909 8.90466 8.89256C8.90466 10.876 10.5162 12.4876 12.4997 12.4876C14.4832 12.4876 16.0947 10.876 16.0947 8.89256C16.0947 6.90909 14.4832 5.29752 12.4997 5.29752Z" fill="#2C93D6"/>
</svg>
