<svg viewBox="0 0 32 32" fill="currentColor" xmlns="http://www.w3.org/2000/svg">
<path fillRule="evenodd" clipRule="evenodd" d="M6.99191 19.0078H24.9919C26.6448 19.0078 28.0002 17.6691 28.0002 16C28.0002 14.3474 26.6613 12.9922 24.9919 12.9922H6.99191C5.33901 12.9922 3.98364 14.3308 3.98364 16C3.98364 17.6526 5.32249 19.0078 6.99191 19.0078ZM24.9919 16.6115H6.99191C6.66133 16.6115 6.39686 16.347 6.39686 16.0165C6.39686 15.686 6.66133 15.4216 6.99191 15.4216H24.9919C25.3225 15.4216 25.587 15.686 25.587 16.0165C25.587 16.347 25.3225 16.6115 24.9919 16.6115Z" />
<path fillRule="evenodd" clipRule="evenodd" d="M6.99191 28.0156H24.9919C26.6448 28.0156 28.0002 26.677 28.0002 25.0078C28.0002 23.3552 26.6613 22 24.9919 22H6.99191C5.33901 22 3.98364 23.3386 3.98364 25.0078C3.98364 26.6604 5.32249 28.0156 6.99191 28.0156ZM24.9919 25.6193H6.99191C6.66133 25.6193 6.39686 25.3548 6.39686 25.0243C6.39686 24.6938 6.66133 24.4294 6.99191 24.4294H24.9919C25.3225 24.4294 25.587 24.6938 25.587 25.0243C25.587 25.3548 25.3225 25.6193 24.9919 25.6193Z" />
<path fillRule="evenodd" clipRule="evenodd" d="M6.99191 10.0156H16.5952C18.2481 10.0156 19.6035 8.67695 19.6035 7.00779C19.6035 5.35516 18.2646 4 16.5952 4H6.99191C5.33901 4 3.98364 5.33863 3.98364 7.00779C3.98364 8.66042 5.32249 10.0156 6.99191 10.0156ZM16.5952 7.61927H6.99191C6.66133 7.61927 6.39686 7.35484 6.39686 7.02432C6.39686 6.69379 6.66133 6.42937 6.99191 6.42937H16.5952C16.9258 6.42937 17.1903 6.69379 17.1903 7.02432C17.1903 7.35484 16.9258 7.61927 16.5952 7.61927Z"/>
<path fillRule="evenodd" clipRule="evenodd" d="M25.0078 4C23.3552 4 22 5.33863 22 7.00779C22 8.66042 23.3386 10.0156 25.0078 10.0156C26.6604 10.0156 28.0156 8.67695 28.0156 7.00779C28.0156 5.35516 26.677 4 25.0078 4ZM24.4128 7.00779C24.4128 6.67726 24.6773 6.41285 25.0078 6.41285C25.3383 6.41285 25.6027 6.67726 25.6027 7.00779C25.6027 7.33832 25.3383 7.60274 25.0078 7.60274C24.6773 7.60274 24.4128 7.33832 24.4128 7.00779Z"/>
</svg>
