<svg width="496" height="611" viewBox="0 0 496 611" fill="none" xmlns="http://www.w3.org/2000/svg">
<path opacity="0.201409" fill-rule="evenodd" clip-rule="evenodd" d="M465 87.5L412 53V122L465 87.5ZM419.799 107.802V67.1984L450.987 87.5L419.799 107.802Z" fill="#493686"/>
<path d="M69.5 63.9999C40 96.9999 0 174 0 288C0 335 9 421 56 457.5C100.917 492.382 129.669 494.849 265.5 488C384.5 482 433.5 457.5 454 429C463.093 416.358 489.5 363 443.5 300C397.5 237 359.5 236.5 311.5 189.5C263.5 142.5 203 63.9999 175 42.4999C147 20.9999 99 30.9999 69.5 63.9999Z" fill="#F1DFFF"/>
<path fill-rule="evenodd" clip-rule="evenodd" d="M316.839 193.121C319.603 194.717 320.55 198.251 318.954 201.015C317.358 203.779 313.824 204.727 311.059 203.131C308.295 201.535 307.348 198 308.944 195.236C310.54 192.472 314.074 191.524 316.839 193.121Z" fill="#493686"/>
<path fill-rule="evenodd" clip-rule="evenodd" d="M291.761 236.555C294.526 238.151 295.473 241.685 293.877 244.449C292.281 247.213 288.746 248.161 285.982 246.565C283.218 244.969 282.271 241.434 283.867 238.67C285.463 235.906 288.997 234.959 291.761 236.555Z" fill="#493686"/>
<path fill-rule="evenodd" clip-rule="evenodd" d="M266.685 279.989C269.45 281.585 270.397 285.12 268.801 287.884C267.205 290.648 263.67 291.596 260.906 289.999C258.141 288.403 257.194 284.869 258.79 282.105C260.386 279.34 263.921 278.393 266.685 279.989Z" fill="#493686"/>
<path fill-rule="evenodd" clip-rule="evenodd" d="M241.608 323.424C244.373 325.02 245.319 328.555 243.724 331.319C242.128 334.083 238.593 335.03 235.829 333.434C233.064 331.838 232.117 328.304 233.713 325.539C235.309 322.775 238.844 321.828 241.608 323.424Z" fill="#493686"/>
<path fill-rule="evenodd" clip-rule="evenodd" d="M273.404 168.043C276.168 169.639 277.115 173.174 275.519 175.938C273.924 178.702 270.389 179.65 267.625 178.054C264.86 176.458 263.913 172.923 265.509 170.159C267.105 167.394 270.64 166.447 273.404 168.043Z" fill="#493686"/>
<path fill-rule="evenodd" clip-rule="evenodd" d="M248.327 211.478C251.091 213.074 252.038 216.608 250.442 219.373C248.847 222.137 245.312 223.084 242.547 221.488C239.783 219.892 238.836 216.357 240.432 213.593C242.028 210.829 245.562 209.882 248.327 211.478Z" fill="#493686"/>
<path fill-rule="evenodd" clip-rule="evenodd" d="M223.251 254.913C226.015 256.509 226.962 260.043 225.366 262.807C223.77 265.572 220.236 266.519 217.471 264.923C214.707 263.327 213.76 259.792 215.356 257.028C216.952 254.264 220.486 253.316 223.251 254.913Z" fill="#493686"/>
<path fill-rule="evenodd" clip-rule="evenodd" d="M198.174 298.347C200.938 299.943 201.885 303.478 200.289 306.242C198.693 309.006 195.159 309.953 192.394 308.357C189.63 306.761 188.683 303.227 190.279 300.463C191.874 297.699 195.409 296.751 198.174 298.347Z" fill="#493686"/>
<path fill-rule="evenodd" clip-rule="evenodd" d="M229.969 142.967C232.734 144.563 233.681 148.097 232.085 150.862C230.489 153.625 226.954 154.573 224.19 152.977C221.426 151.381 220.479 147.846 222.075 145.082C223.671 142.318 227.205 141.371 229.969 142.967Z" fill="#493686"/>
<path fill-rule="evenodd" clip-rule="evenodd" d="M204.893 186.401C207.658 187.997 208.605 191.532 207.009 194.296C205.413 197.06 201.878 198.008 199.114 196.412C196.349 194.816 195.403 191.28 196.998 188.517C198.594 185.752 202.129 184.805 204.893 186.401Z" fill="#493686"/>
<path fill-rule="evenodd" clip-rule="evenodd" d="M179.816 229.836C182.581 231.432 183.528 234.966 181.932 237.731C180.336 240.495 176.801 241.442 174.037 239.846C171.272 238.25 170.325 234.716 171.921 231.951C173.517 229.187 177.052 228.24 179.816 229.836Z" fill="#493686"/>
<path fill-rule="evenodd" clip-rule="evenodd" d="M154.739 273.27C157.503 274.866 158.45 278.401 156.854 281.165C155.258 283.929 151.724 284.876 148.96 283.28C146.195 281.684 145.248 278.15 146.844 275.385C148.44 272.622 151.975 271.674 154.739 273.27Z" fill="#493686"/>
<path fill-rule="evenodd" clip-rule="evenodd" d="M186.536 117.89C189.3 119.486 190.247 123.021 188.651 125.785C187.056 128.549 183.521 129.496 180.756 127.9C177.992 126.304 177.045 122.769 178.641 120.005C180.237 117.241 183.771 116.294 186.536 117.89Z" fill="#493686"/>
<path fill-rule="evenodd" clip-rule="evenodd" d="M161.459 161.324C164.223 162.92 165.17 166.455 163.574 169.219C161.978 171.983 158.444 172.93 155.679 171.334C152.915 169.738 151.968 166.203 153.564 163.44C155.16 160.675 158.694 159.728 161.459 161.324Z" fill="#493686"/>
<path fill-rule="evenodd" clip-rule="evenodd" d="M136.382 204.759C139.146 206.355 140.093 209.889 138.497 212.654C136.901 215.418 133.367 216.365 130.602 214.769C127.838 213.173 126.891 209.639 128.487 206.874C130.083 204.11 133.617 203.163 136.382 204.759Z" fill="#493686"/>
<path fill-rule="evenodd" clip-rule="evenodd" d="M111.304 248.193C114.069 249.789 115.015 253.324 113.42 256.088C111.824 258.853 108.289 259.8 105.525 258.204C102.761 256.608 101.813 253.073 103.41 250.309C105.005 247.545 108.54 246.597 111.304 248.193Z" fill="#493686"/>
<path fill-rule="evenodd" clip-rule="evenodd" d="M216.318 367.225C219.083 368.821 220.03 372.355 218.434 375.119C216.838 377.883 213.303 378.831 210.539 377.235C207.774 375.639 206.828 372.104 208.423 369.34C210.019 366.576 213.554 365.628 216.318 367.225Z" fill="#493686"/>
<path fill-rule="evenodd" clip-rule="evenodd" d="M191.241 410.659C194.005 412.255 194.952 415.79 193.356 418.554C191.761 421.318 188.226 422.265 185.461 420.669C182.697 419.073 181.75 415.538 183.346 412.775C184.942 410.01 188.477 409.063 191.241 410.659Z" fill="#493686"/>
<path fill-rule="evenodd" clip-rule="evenodd" d="M166.164 454.094C168.928 455.69 169.875 459.224 168.279 461.989C166.683 464.753 163.149 465.7 160.384 464.104C157.62 462.508 156.673 458.974 158.269 456.209C159.865 453.445 163.399 452.498 166.164 454.094Z" fill="#493686"/>
<path fill-rule="evenodd" clip-rule="evenodd" d="M141.088 497.528C143.852 499.124 144.799 502.659 143.203 505.423C141.607 508.187 138.073 509.134 135.308 507.538C132.544 505.942 131.597 502.408 133.193 499.643C134.788 496.879 138.323 495.932 141.088 497.528Z" fill="#493686"/>
<path fill-rule="evenodd" clip-rule="evenodd" d="M172.884 342.148C175.648 343.744 176.595 347.278 174.999 350.043C173.403 352.806 169.868 353.754 167.104 352.158C164.34 350.562 163.393 347.027 164.989 344.263C166.585 341.499 170.119 340.552 172.884 342.148Z" fill="#493686"/>
<path fill-rule="evenodd" clip-rule="evenodd" d="M147.806 385.582C150.571 387.178 151.518 390.713 149.922 393.477C148.326 396.241 144.791 397.189 142.027 395.593C139.262 393.997 138.316 390.462 139.911 387.698C141.508 384.933 145.042 383.986 147.806 385.582Z" fill="#493686"/>
<path fill-rule="evenodd" clip-rule="evenodd" d="M122.73 429.017C125.495 430.613 126.442 434.147 124.846 436.911C123.25 439.676 119.715 440.623 116.951 439.027C114.186 437.431 113.239 433.896 114.835 431.132C116.431 428.368 119.966 427.42 122.73 429.017Z" fill="#493686"/>
<path fill-rule="evenodd" clip-rule="evenodd" d="M97.653 472.451C100.417 474.047 101.364 477.582 99.7685 480.346C98.1724 483.11 94.638 484.057 91.8736 482.461C89.1092 480.865 88.1621 477.331 89.7582 474.567C91.3538 471.803 94.8886 470.855 97.653 472.451Z" fill="#493686"/>
<path fill-rule="evenodd" clip-rule="evenodd" d="M129.449 317.071C132.213 318.667 133.16 322.202 131.564 324.966C129.969 327.73 126.434 328.678 123.669 327.082C120.905 325.485 119.958 321.95 121.554 319.187C123.15 316.422 126.685 315.475 129.449 317.071Z" fill="#493686"/>
<path fill-rule="evenodd" clip-rule="evenodd" d="M104.372 360.505C107.136 362.101 108.083 365.636 106.487 368.4C104.892 371.164 101.357 372.112 98.5923 370.516C95.8279 368.92 94.8813 365.384 96.4769 362.621C98.0729 359.856 101.607 358.909 104.372 360.505Z" fill="#493686"/>
<path fill-rule="evenodd" clip-rule="evenodd" d="M79.2951 403.94C82.0596 405.536 83.0066 409.07 81.4106 411.835C79.8145 414.599 76.2801 415.546 73.5157 413.95C70.7513 412.354 69.8042 408.82 71.4002 406.055C72.9963 403.291 76.5307 402.344 79.2951 403.94Z" fill="#493686"/>
<path fill-rule="evenodd" clip-rule="evenodd" d="M54.2185 447.374C56.9829 448.97 57.9295 452.506 56.3339 455.269C54.7379 458.034 51.2034 458.981 48.439 457.385C45.6746 455.789 44.7275 452.254 46.3236 449.49C47.9192 446.726 51.4541 445.778 54.2185 447.374Z" fill="#493686"/>
<path fill-rule="evenodd" clip-rule="evenodd" d="M86.0144 291.994C88.7788 293.59 89.7258 297.125 88.1298 299.889C86.5342 302.653 82.9993 303.6 80.2349 302.004C77.4705 300.408 76.5238 296.873 78.1195 294.109C79.7155 291.345 83.2499 290.398 86.0144 291.994Z" fill="#493686"/>
<path fill-rule="evenodd" clip-rule="evenodd" d="M60.9382 335.429C63.7026 337.025 64.6497 340.559 63.0536 343.324C61.458 346.087 57.9232 347.035 55.1587 345.439C52.3943 343.843 51.4477 340.308 53.0433 337.544C54.6393 334.78 58.1738 333.833 60.9382 335.429Z" fill="#493686"/>
<path fill-rule="evenodd" clip-rule="evenodd" d="M35.8611 378.863C38.6255 380.459 39.5725 383.993 37.9765 386.758C36.3804 389.522 32.846 390.469 30.0816 388.873C27.3172 387.277 26.3701 383.743 27.9662 380.978C29.5622 378.214 33.0966 377.267 35.8611 378.863Z" fill="#493686"/>
<path fill-rule="evenodd" clip-rule="evenodd" d="M10.7839 422.297C13.5483 423.893 14.495 427.428 12.8993 430.192C11.3033 432.957 7.76886 433.904 5.00444 432.308C2.24002 430.712 1.29297 427.177 2.88901 424.413C4.48466 421.649 8.01948 420.701 10.7839 422.297Z" fill="#493686"/>
<path fill-rule="evenodd" clip-rule="evenodd" d="M490.941 293.639C493.706 295.235 494.653 298.769 493.057 301.533C491.461 304.297 487.926 305.245 485.162 303.649C482.397 302.053 481.451 298.518 483.046 295.754C484.642 292.99 488.177 292.043 490.941 293.639Z" fill="#493686"/>
<path fill-rule="evenodd" clip-rule="evenodd" d="M465.864 337.073C468.628 338.669 469.575 342.204 467.979 344.968C466.384 347.732 462.849 348.68 460.085 347.083C457.32 345.487 456.373 341.952 457.969 339.189C459.565 336.424 463.1 335.477 465.864 337.073Z" fill="#493686"/>
<path fill-rule="evenodd" clip-rule="evenodd" d="M440.788 380.507C443.552 382.103 444.499 385.638 442.903 388.402C441.307 391.167 437.773 392.114 435.008 390.518C432.244 388.922 431.297 385.387 432.893 382.623C434.489 379.858 438.023 378.911 440.788 380.507Z" fill="#493686"/>
<path fill-rule="evenodd" clip-rule="evenodd" d="M415.711 423.942C418.475 425.538 419.422 429.073 417.826 431.837C416.23 434.601 412.696 435.548 409.931 433.952C407.167 432.356 406.22 428.822 407.816 426.057C409.411 423.294 412.946 422.346 415.711 423.942Z" fill="#493686"/>
<path fill-rule="evenodd" clip-rule="evenodd" d="M447.507 268.562C450.271 270.158 451.218 273.692 449.622 276.457C448.026 279.221 444.492 280.168 441.727 278.572C438.963 276.976 438.016 273.441 439.612 270.677C441.208 267.913 444.742 266.966 447.507 268.562Z" fill="#493686"/>
<path fill-rule="evenodd" clip-rule="evenodd" d="M422.429 311.996C425.194 313.592 426.141 317.126 424.545 319.891C422.949 322.655 419.414 323.602 416.65 322.006C413.886 320.41 412.939 316.875 414.535 314.111C416.131 311.347 419.665 310.4 422.429 311.996Z" fill="#493686"/>
<path fill-rule="evenodd" clip-rule="evenodd" d="M397.353 355.431C400.118 357.027 401.065 360.561 399.469 363.325C397.873 366.09 394.338 367.037 391.574 365.441C388.809 363.845 387.862 360.31 389.458 357.546C391.054 354.782 394.589 353.835 397.353 355.431Z" fill="#493686"/>
<path fill-rule="evenodd" clip-rule="evenodd" d="M372.276 398.865C375.041 400.461 375.987 403.996 374.392 406.76C372.795 409.524 369.261 410.472 366.497 408.875C363.732 407.279 362.785 403.745 364.381 400.981C365.977 398.217 369.512 397.269 372.276 398.865Z" fill="#493686"/>
<path fill-rule="evenodd" clip-rule="evenodd" d="M404.072 243.485C406.836 245.081 407.783 248.615 406.187 251.38C404.592 254.143 401.057 255.091 398.293 253.495C395.528 251.899 394.581 248.364 396.177 245.6C397.773 242.836 401.308 241.889 404.072 243.485Z" fill="#493686"/>
<path fill-rule="evenodd" clip-rule="evenodd" d="M378.996 286.919C381.76 288.515 382.707 292.05 381.111 294.814C379.516 297.578 375.981 298.526 373.216 296.93C370.452 295.334 369.505 291.799 371.101 289.035C372.697 286.27 376.231 285.323 378.996 286.919Z" fill="#493686"/>
<path fill-rule="evenodd" clip-rule="evenodd" d="M353.919 330.354C356.683 331.95 357.63 335.484 356.034 338.249C354.438 341.013 350.904 341.96 348.139 340.364C345.375 338.768 344.428 335.234 346.024 332.469C347.62 329.705 351.154 328.758 353.919 330.354Z" fill="#493686"/>
<path fill-rule="evenodd" clip-rule="evenodd" d="M328.842 373.788C331.606 375.384 332.553 378.919 330.957 381.683C329.361 384.447 325.826 385.394 323.062 383.798C320.298 382.202 319.351 378.668 320.947 375.903C322.542 373.14 326.077 372.192 328.842 373.788Z" fill="#493686"/>
<path fill-rule="evenodd" clip-rule="evenodd" d="M360.638 218.408C363.403 220.004 364.35 223.539 362.754 226.303C361.158 229.067 357.623 230.014 354.859 228.418C352.095 226.822 351.148 223.287 352.744 220.524C354.34 217.759 357.874 216.812 360.638 218.408Z" fill="#493686"/>
<path fill-rule="evenodd" clip-rule="evenodd" d="M335.561 261.843C338.326 263.439 339.273 266.973 337.677 269.738C336.081 272.501 332.546 273.449 329.782 271.853C327.017 270.257 326.071 266.722 327.666 263.958C329.262 261.194 332.797 260.247 335.561 261.843Z" fill="#493686"/>
<path fill-rule="evenodd" clip-rule="evenodd" d="M310.484 305.277C313.249 306.873 314.196 310.407 312.6 313.172C311.003 315.936 307.469 316.883 304.705 315.287C301.94 313.691 300.993 310.157 302.589 307.392C304.185 304.628 307.72 303.681 310.484 305.277Z" fill="#493686"/>
<path fill-rule="evenodd" clip-rule="evenodd" d="M285.407 348.711C288.171 350.307 289.118 353.842 287.522 356.606C285.926 359.371 282.392 360.318 279.627 358.722C276.863 357.126 275.916 353.591 277.512 350.827C279.108 348.063 282.643 347.115 285.407 348.711Z" fill="#493686"/>
<path fill-rule="evenodd" clip-rule="evenodd" d="M390.422 467.743C393.186 469.339 394.133 472.874 392.537 475.638C390.941 478.402 387.407 479.349 384.642 477.753C381.878 476.157 380.931 472.622 382.527 469.859C384.123 467.094 387.657 466.147 390.422 467.743Z" fill="#493686"/>
<path fill-rule="evenodd" clip-rule="evenodd" d="M365.344 511.178C368.109 512.774 369.056 516.308 367.46 519.073C365.864 521.836 362.329 522.784 359.565 521.188C356.801 519.592 355.854 516.057 357.45 513.293C359.046 510.529 362.58 509.582 365.344 511.178Z" fill="#493686"/>
<path fill-rule="evenodd" clip-rule="evenodd" d="M340.267 554.612C343.032 556.208 343.979 559.742 342.383 562.507C340.787 565.271 337.252 566.218 334.488 564.622C331.723 563.026 330.776 559.492 332.372 556.727C333.968 553.963 337.503 553.016 340.267 554.612Z" fill="#493686"/>
<path fill-rule="evenodd" clip-rule="evenodd" d="M315.191 598.046C317.956 599.642 318.902 603.177 317.307 605.941C315.711 608.706 312.176 609.653 309.412 608.057C306.647 606.461 305.7 602.926 307.296 600.162C308.892 597.398 312.427 596.45 315.191 598.046Z" fill="#493686"/>
<path fill-rule="evenodd" clip-rule="evenodd" d="M346.987 442.666C349.751 444.262 350.698 447.797 349.102 450.561C347.507 453.325 343.972 454.273 341.208 452.677C338.443 451.081 337.496 447.546 339.092 444.782C340.688 442.017 344.223 441.07 346.987 442.666Z" fill="#493686"/>
<path fill-rule="evenodd" clip-rule="evenodd" d="M321.91 486.101C324.674 487.697 325.621 491.231 324.025 493.995C322.43 496.759 318.895 497.707 316.13 496.111C313.366 494.515 312.419 490.98 314.015 488.216C315.611 485.452 319.145 484.504 321.91 486.101Z" fill="#493686"/>
<path fill-rule="evenodd" clip-rule="evenodd" d="M296.833 529.535C299.597 531.131 300.544 534.666 298.948 537.43C297.352 540.194 293.818 541.141 291.053 539.545C288.289 537.949 287.342 534.415 288.938 531.651C290.534 528.886 294.068 527.939 296.833 529.535Z" fill="#493686"/>
<path fill-rule="evenodd" clip-rule="evenodd" d="M271.756 572.97C274.52 574.566 275.467 578.101 273.871 580.865C272.275 583.629 268.741 584.576 265.977 582.98C263.212 581.384 262.265 577.849 263.861 575.085C265.457 572.321 268.992 571.374 271.756 572.97Z" fill="#493686"/>
<path fill-rule="evenodd" clip-rule="evenodd" d="M303.552 417.589C306.317 419.185 307.264 422.72 305.668 425.484C304.072 428.248 300.537 429.196 297.773 427.6C295.009 426.004 294.062 422.468 295.658 419.705C297.254 416.94 300.788 415.993 303.552 417.589Z" fill="#493686"/>
<path fill-rule="evenodd" clip-rule="evenodd" d="M278.475 461.024C281.24 462.62 282.187 466.154 280.591 468.919C278.995 471.682 275.46 472.63 272.696 471.034C269.931 469.438 268.985 465.903 270.58 463.139C272.176 460.375 275.711 459.428 278.475 461.024Z" fill="#493686"/>
<path fill-rule="evenodd" clip-rule="evenodd" d="M253.399 504.458C256.164 506.054 257.111 509.589 255.515 512.353C253.919 515.118 250.384 516.065 247.62 514.469C244.855 512.873 243.908 509.338 245.504 506.574C247.1 503.809 250.635 502.862 253.399 504.458Z" fill="#493686"/>
<path fill-rule="evenodd" clip-rule="evenodd" d="M228.322 547.892C231.086 549.489 232.033 553.024 230.437 555.787C228.841 558.552 225.307 559.499 222.543 557.903C219.778 556.307 218.831 552.772 220.427 550.008C222.023 547.244 225.558 546.296 228.322 547.892Z" fill="#493686"/>
<path fill-rule="evenodd" clip-rule="evenodd" d="M260.118 392.513C262.882 394.109 263.829 397.643 262.233 400.408C260.638 403.171 257.103 404.119 254.338 402.523C251.574 400.927 250.627 397.392 252.223 394.628C253.819 391.864 257.353 390.917 260.118 392.513Z" fill="#493686"/>
<path fill-rule="evenodd" clip-rule="evenodd" d="M235.042 435.947C237.806 437.543 238.753 441.078 237.157 443.842C235.562 446.606 232.027 447.554 229.262 445.958C226.498 444.361 225.551 440.826 227.147 438.063C228.743 435.298 232.277 434.351 235.042 435.947Z" fill="#493686"/>
<path fill-rule="evenodd" clip-rule="evenodd" d="M209.965 479.381C212.729 480.977 213.676 484.512 212.08 487.276C210.484 490.041 206.95 490.988 204.185 489.392C201.421 487.796 200.474 484.261 202.07 481.497C203.666 478.732 207.2 477.785 209.965 479.381Z" fill="#493686"/>
<path fill-rule="evenodd" clip-rule="evenodd" d="M184.887 522.816C187.652 524.412 188.598 527.947 187.003 530.711C185.407 533.475 181.872 534.422 179.108 532.826C176.344 531.23 175.396 527.696 176.993 524.931C178.588 522.168 182.123 521.22 184.887 522.816Z" fill="#493686"/>
<path opacity="0.203246" fill-rule="evenodd" clip-rule="evenodd" d="M97 11.3226C123.334 11.3226 144.633 32.4718 144.633 58.5C144.633 84.5282 123.334 105.677 97 105.677C70.6657 105.677 49.367 84.5282 49.367 58.5C49.367 32.4718 70.6657 11.3226 97 11.3226ZM156 58.5C156 26.1642 129.557 0 97 0C64.4425 0 38 26.1642 38 58.5C38 90.8358 64.4425 117 97 117C129.557 117 156 90.8358 156 58.5Z" fill="#37C9EE"/>
</svg>
