<svg width="496" height="611" viewBox="0 0 496 611" fill="none" xmlns="http://www.w3.org/2000/svg">
<path opacity="0.201409" fill-rule="evenodd" clip-rule="evenodd" d="M30.9463 87.5L83.9463 53V122L30.9463 87.5ZM76.1477 107.802V67.1984L44.9598 87.5L76.1477 107.802Z" fill="#493686"/>
<path d="M426.446 63.9999C455.946 96.9999 495.946 174 495.946 288C495.946 335 486.946 421 439.946 457.5C395.03 492.382 366.277 494.849 230.446 488C111.446 482 62.4463 457.5 41.9463 429C32.8531 416.358 6.44629 363 52.4463 300C98.4463 237 136.446 236.5 184.446 189.5C232.446 142.5 292.946 63.9999 320.946 42.4999C348.946 20.9999 396.946 30.9999 426.446 63.9999Z" fill="#F1DFFF"/>
<path fill-rule="evenodd" clip-rule="evenodd" d="M179.108 193.121C176.343 194.717 175.396 198.251 176.992 201.015C178.588 203.779 182.123 204.727 184.887 203.131C187.652 201.535 188.598 198 187.003 195.236C185.407 192.472 181.872 191.524 179.108 193.121Z" fill="#493686"/>
<path fill-rule="evenodd" clip-rule="evenodd" d="M204.185 236.555C201.42 238.151 200.473 241.685 202.069 244.449C203.665 247.213 207.2 248.161 209.964 246.565C212.729 244.969 213.675 241.434 212.08 238.67C210.484 235.906 206.949 234.959 204.185 236.555Z" fill="#493686"/>
<path fill-rule="evenodd" clip-rule="evenodd" d="M229.261 279.989C226.497 281.585 225.55 285.12 227.146 287.884C228.742 290.648 232.276 291.596 235.04 289.999C237.805 288.403 238.752 284.869 237.156 282.105C235.56 279.34 232.025 278.393 229.261 279.989Z" fill="#493686"/>
<path fill-rule="evenodd" clip-rule="evenodd" d="M254.338 323.424C251.574 325.02 250.627 328.555 252.223 331.319C253.819 334.083 257.353 335.03 260.118 333.434C262.882 331.838 263.829 328.304 262.233 325.539C260.637 322.775 257.103 321.828 254.338 323.424Z" fill="#493686"/>
<path fill-rule="evenodd" clip-rule="evenodd" d="M222.542 168.043C219.778 169.639 218.831 173.174 220.427 175.938C222.022 178.702 225.557 179.65 228.322 178.054C231.086 176.458 232.033 172.923 230.437 170.159C228.841 167.394 225.307 166.447 222.542 168.043Z" fill="#493686"/>
<path fill-rule="evenodd" clip-rule="evenodd" d="M247.619 211.478C244.855 213.074 243.908 216.608 245.504 219.373C247.1 222.137 250.634 223.084 253.399 221.488C256.163 219.892 257.11 216.357 255.514 213.593C253.918 210.829 250.384 209.882 247.619 211.478Z" fill="#493686"/>
<path fill-rule="evenodd" clip-rule="evenodd" d="M272.696 254.913C269.931 256.509 268.984 260.043 270.58 262.807C272.176 265.572 275.711 266.519 278.475 264.923C281.239 263.327 282.187 259.792 280.59 257.028C278.994 254.264 275.46 253.316 272.696 254.913Z" fill="#493686"/>
<path fill-rule="evenodd" clip-rule="evenodd" d="M297.773 298.347C295.008 299.943 294.062 303.478 295.657 306.242C297.253 309.006 300.788 309.953 303.552 308.357C306.317 306.761 307.264 303.227 305.668 300.463C304.072 297.699 300.537 296.751 297.773 298.347Z" fill="#493686"/>
<path fill-rule="evenodd" clip-rule="evenodd" d="M265.977 142.967C263.212 144.563 262.265 148.097 263.861 150.862C265.457 153.625 268.992 154.573 271.756 152.977C274.521 151.381 275.467 147.846 273.872 145.082C272.276 142.318 268.741 141.371 265.977 142.967Z" fill="#493686"/>
<path fill-rule="evenodd" clip-rule="evenodd" d="M291.053 186.401C288.289 187.997 287.342 191.532 288.938 194.296C290.533 197.06 294.068 198.008 296.832 196.412C299.597 194.816 300.544 191.28 298.948 188.517C297.352 185.752 293.817 184.805 291.053 186.401Z" fill="#493686"/>
<path fill-rule="evenodd" clip-rule="evenodd" d="M316.13 229.836C313.366 231.432 312.419 234.966 314.015 237.731C315.611 240.495 319.145 241.442 321.91 239.846C324.674 238.25 325.621 234.716 324.025 231.951C322.429 229.187 318.895 228.24 316.13 229.836Z" fill="#493686"/>
<path fill-rule="evenodd" clip-rule="evenodd" d="M341.207 273.27C338.443 274.866 337.496 278.401 339.092 281.165C340.688 283.929 344.222 284.876 346.987 283.28C349.751 281.684 350.698 278.15 349.102 275.385C347.507 272.622 343.972 271.674 341.207 273.27Z" fill="#493686"/>
<path fill-rule="evenodd" clip-rule="evenodd" d="M309.41 117.89C306.646 119.486 305.699 123.021 307.295 125.785C308.891 128.549 312.425 129.496 315.19 127.9C317.954 126.304 318.901 122.769 317.305 120.005C315.709 117.241 312.175 116.294 309.41 117.89Z" fill="#493686"/>
<path fill-rule="evenodd" clip-rule="evenodd" d="M334.488 161.324C331.723 162.92 330.776 166.455 332.372 169.219C333.968 171.983 337.503 172.93 340.267 171.334C343.031 169.738 343.978 166.203 342.382 163.44C340.786 160.675 337.252 159.728 334.488 161.324Z" fill="#493686"/>
<path fill-rule="evenodd" clip-rule="evenodd" d="M359.565 204.759C356.8 206.355 355.853 209.889 357.449 212.654C359.045 215.418 362.58 216.365 365.344 214.769C368.109 213.173 369.056 209.639 367.46 206.874C365.864 204.11 362.329 203.163 359.565 204.759Z" fill="#493686"/>
<path fill-rule="evenodd" clip-rule="evenodd" d="M384.642 248.193C381.877 249.789 380.931 253.324 382.526 256.088C384.122 258.853 387.657 259.8 390.421 258.204C393.186 256.608 394.133 253.073 392.537 250.309C390.941 247.545 387.406 246.597 384.642 248.193Z" fill="#493686"/>
<path fill-rule="evenodd" clip-rule="evenodd" d="M279.628 367.225C276.864 368.821 275.917 372.355 277.513 375.119C279.108 377.883 282.643 378.831 285.408 377.235C288.172 375.639 289.119 372.104 287.523 369.34C285.927 366.576 282.393 365.628 279.628 367.225Z" fill="#493686"/>
<path fill-rule="evenodd" clip-rule="evenodd" d="M304.705 410.659C301.941 412.255 300.994 415.79 302.59 418.554C304.186 421.318 307.72 422.265 310.485 420.669C313.249 419.073 314.196 415.538 312.6 412.775C311.004 410.01 307.47 409.063 304.705 410.659Z" fill="#493686"/>
<path fill-rule="evenodd" clip-rule="evenodd" d="M329.783 454.094C327.018 455.69 326.071 459.224 327.667 461.989C329.263 464.753 332.798 465.7 335.562 464.104C338.326 462.508 339.273 458.974 337.677 456.209C336.081 453.445 332.547 452.498 329.783 454.094Z" fill="#493686"/>
<path fill-rule="evenodd" clip-rule="evenodd" d="M354.859 497.528C352.094 499.124 351.148 502.659 352.743 505.423C354.339 508.187 357.874 509.134 360.638 507.538C363.403 505.942 364.35 502.408 362.754 499.643C361.158 496.879 357.623 495.932 354.859 497.528Z" fill="#493686"/>
<path fill-rule="evenodd" clip-rule="evenodd" d="M323.063 342.148C320.298 343.744 319.351 347.278 320.947 350.043C322.543 352.806 326.078 353.754 328.842 352.158C331.607 350.562 332.553 347.027 330.958 344.263C329.362 341.499 325.827 340.552 323.063 342.148Z" fill="#493686"/>
<path fill-rule="evenodd" clip-rule="evenodd" d="M348.14 385.582C345.376 387.178 344.428 390.713 346.024 393.477C347.62 396.241 351.155 397.189 353.919 395.593C356.684 393.997 357.63 390.462 356.035 387.698C354.439 384.933 350.904 383.986 348.14 385.582Z" fill="#493686"/>
<path fill-rule="evenodd" clip-rule="evenodd" d="M373.216 429.017C370.452 430.613 369.505 434.147 371.101 436.911C372.697 439.676 376.231 440.623 378.996 439.027C381.76 437.431 382.707 433.896 381.111 431.132C379.515 428.368 375.981 427.42 373.216 429.017Z" fill="#493686"/>
<path fill-rule="evenodd" clip-rule="evenodd" d="M398.293 472.451C395.529 474.047 394.582 477.582 396.178 480.346C397.774 483.11 401.308 484.057 404.073 482.461C406.837 480.865 407.784 477.331 406.188 474.567C404.592 471.803 401.058 470.855 398.293 472.451Z" fill="#493686"/>
<path fill-rule="evenodd" clip-rule="evenodd" d="M366.497 317.071C363.733 318.667 362.786 322.202 364.382 324.966C365.978 327.73 369.512 328.678 372.277 327.082C375.041 325.485 375.988 321.95 374.392 319.187C372.796 316.422 369.262 315.475 366.497 317.071Z" fill="#493686"/>
<path fill-rule="evenodd" clip-rule="evenodd" d="M391.574 360.505C388.81 362.101 387.863 365.636 389.459 368.4C391.055 371.164 394.59 372.112 397.354 370.516C400.118 368.92 401.065 365.384 399.469 362.621C397.873 359.856 394.339 358.909 391.574 360.505Z" fill="#493686"/>
<path fill-rule="evenodd" clip-rule="evenodd" d="M416.651 403.94C413.887 405.536 412.94 409.07 414.536 411.835C416.132 414.599 419.666 415.546 422.431 413.95C425.195 412.354 426.142 408.82 424.546 406.055C422.95 403.291 419.416 402.344 416.651 403.94Z" fill="#493686"/>
<path fill-rule="evenodd" clip-rule="evenodd" d="M441.728 447.374C438.963 448.97 438.017 452.506 439.612 455.269C441.208 458.034 444.743 458.981 447.507 457.385C450.272 455.789 451.219 452.254 449.623 449.49C448.027 446.726 444.492 445.778 441.728 447.374Z" fill="#493686"/>
<path fill-rule="evenodd" clip-rule="evenodd" d="M409.932 291.994C407.167 293.59 406.22 297.125 407.816 299.889C409.412 302.653 412.947 303.6 415.711 302.004C418.476 300.408 419.422 296.873 417.827 294.109C416.231 291.345 412.696 290.398 409.932 291.994Z" fill="#493686"/>
<path fill-rule="evenodd" clip-rule="evenodd" d="M435.008 335.429C432.244 337.025 431.297 340.559 432.893 343.324C434.488 346.087 438.023 347.035 440.788 345.439C443.552 343.843 444.499 340.308 442.903 337.544C441.307 334.78 437.773 333.833 435.008 335.429Z" fill="#493686"/>
<path fill-rule="evenodd" clip-rule="evenodd" d="M460.085 378.863C457.321 380.459 456.374 383.993 457.97 386.758C459.566 389.522 463.1 390.469 465.865 388.873C468.629 387.277 469.576 383.743 467.98 380.978C466.384 378.214 462.85 377.267 460.085 378.863Z" fill="#493686"/>
<path fill-rule="evenodd" clip-rule="evenodd" d="M485.162 422.297C482.398 423.893 481.451 427.428 483.047 430.192C484.643 432.957 488.177 433.904 490.942 432.308C493.706 430.712 494.653 427.177 493.057 424.413C491.462 421.649 487.927 420.701 485.162 422.297Z" fill="#493686"/>
<path fill-rule="evenodd" clip-rule="evenodd" d="M5.00516 293.639C2.24074 295.235 1.29369 298.769 2.88973 301.533C4.48537 304.297 8.0202 305.245 10.7846 303.649C13.549 302.053 14.4957 298.518 12.9 295.754C11.304 292.99 7.76958 292.043 5.00516 293.639Z" fill="#493686"/>
<path fill-rule="evenodd" clip-rule="evenodd" d="M30.0823 337.073C27.3179 338.669 26.3708 342.204 27.9669 344.968C29.5625 347.732 33.0973 348.68 35.8618 347.083C38.6262 345.487 39.5728 341.952 37.9772 339.189C36.3812 336.424 32.8467 335.477 30.0823 337.073Z" fill="#493686"/>
<path fill-rule="evenodd" clip-rule="evenodd" d="M55.1585 380.507C52.3941 382.103 51.447 385.638 53.0431 388.402C54.6391 391.167 58.1735 392.114 60.9379 390.518C63.7024 388.922 64.6494 385.387 63.0534 382.623C61.4573 379.858 57.9229 378.911 55.1585 380.507Z" fill="#493686"/>
<path fill-rule="evenodd" clip-rule="evenodd" d="M80.2356 423.942C77.4712 425.538 76.5246 429.073 78.1202 431.837C79.7162 434.601 83.2507 435.548 86.0151 433.952C88.7795 432.356 89.7266 428.822 88.1305 426.057C86.5349 423.294 83.0001 422.346 80.2356 423.942Z" fill="#493686"/>
<path fill-rule="evenodd" clip-rule="evenodd" d="M48.4397 268.562C45.6753 270.158 44.7283 273.692 46.3243 276.457C47.9199 279.221 51.4548 280.168 54.2192 278.572C56.9836 276.976 57.9303 273.441 56.3346 270.677C54.7386 267.913 51.2042 266.966 48.4397 268.562Z" fill="#493686"/>
<path fill-rule="evenodd" clip-rule="evenodd" d="M73.5169 311.996C70.7525 313.592 69.8054 317.126 71.4014 319.891C72.9971 322.655 76.5319 323.602 79.2963 322.006C82.0608 320.41 83.0074 316.875 81.4118 314.111C79.8157 311.347 76.2813 310.4 73.5169 311.996Z" fill="#493686"/>
<path fill-rule="evenodd" clip-rule="evenodd" d="M98.5931 355.431C95.8286 357.027 94.8816 360.561 96.4776 363.325C98.0737 366.09 101.608 367.037 104.373 365.441C107.137 363.845 108.084 360.31 106.488 357.546C104.892 354.782 101.357 353.835 98.5931 355.431Z" fill="#493686"/>
<path fill-rule="evenodd" clip-rule="evenodd" d="M123.67 398.865C120.906 400.461 119.959 403.996 121.555 406.76C123.151 409.524 126.685 410.472 129.45 408.875C132.214 407.279 133.161 403.745 131.565 400.981C129.969 398.217 126.435 397.269 123.67 398.865Z" fill="#493686"/>
<path fill-rule="evenodd" clip-rule="evenodd" d="M91.8743 243.485C89.1099 245.081 88.1628 248.615 89.7589 251.38C91.3545 254.143 94.8893 255.091 97.6538 253.495C100.418 251.899 101.365 248.364 99.7692 245.6C98.1732 242.836 94.6387 241.889 91.8743 243.485Z" fill="#493686"/>
<path fill-rule="evenodd" clip-rule="evenodd" d="M116.95 286.919C114.186 288.515 113.239 292.05 114.835 294.814C116.431 297.578 119.966 298.526 122.73 296.93C125.494 295.334 126.441 291.799 124.845 289.035C123.249 286.27 119.715 285.323 116.95 286.919Z" fill="#493686"/>
<path fill-rule="evenodd" clip-rule="evenodd" d="M142.028 330.354C139.263 331.95 138.316 335.484 139.912 338.249C141.508 341.013 145.043 341.96 147.807 340.364C150.572 338.768 151.519 335.234 149.923 332.469C148.326 329.705 144.792 328.758 142.028 330.354Z" fill="#493686"/>
<path fill-rule="evenodd" clip-rule="evenodd" d="M167.105 373.788C164.34 375.384 163.394 378.919 164.989 381.683C166.585 384.447 170.12 385.394 172.884 383.798C175.649 382.202 176.596 378.668 175 375.903C173.404 373.14 169.869 372.192 167.105 373.788Z" fill="#493686"/>
<path fill-rule="evenodd" clip-rule="evenodd" d="M135.308 218.408C132.543 220.004 131.596 223.539 133.192 226.303C134.788 229.067 138.323 230.014 141.087 228.418C143.852 226.822 144.798 223.287 143.203 220.524C141.607 217.759 138.072 216.812 135.308 218.408Z" fill="#493686"/>
<path fill-rule="evenodd" clip-rule="evenodd" d="M160.385 261.843C157.621 263.439 156.674 266.973 158.27 269.738C159.865 272.501 163.4 273.449 166.165 271.853C168.929 270.257 169.876 266.722 168.28 263.958C166.684 261.194 163.149 260.247 160.385 261.843Z" fill="#493686"/>
<path fill-rule="evenodd" clip-rule="evenodd" d="M185.462 305.277C182.698 306.873 181.751 310.407 183.347 313.172C184.943 315.936 188.477 316.883 191.242 315.287C194.006 313.691 194.953 310.157 193.357 307.392C191.761 304.628 188.227 303.681 185.462 305.277Z" fill="#493686"/>
<path fill-rule="evenodd" clip-rule="evenodd" d="M210.539 348.711C207.775 350.307 206.828 353.842 208.424 356.606C210.02 359.371 213.554 360.318 216.319 358.722C219.083 357.126 220.03 353.591 218.434 350.827C216.839 348.063 213.304 347.115 210.539 348.711Z" fill="#493686"/>
<path fill-rule="evenodd" clip-rule="evenodd" d="M105.525 467.743C102.76 469.339 101.813 472.874 103.409 475.638C105.005 478.402 108.54 479.349 111.304 477.753C114.069 476.157 115.015 472.622 113.42 469.859C111.824 467.094 108.289 466.147 105.525 467.743Z" fill="#493686"/>
<path fill-rule="evenodd" clip-rule="evenodd" d="M130.602 511.178C127.837 512.774 126.89 516.308 128.486 519.073C130.082 521.836 133.617 522.784 136.381 521.188C139.146 519.592 140.092 516.057 138.497 513.293C136.901 510.529 133.366 509.582 130.602 511.178Z" fill="#493686"/>
<path fill-rule="evenodd" clip-rule="evenodd" d="M155.679 554.612C152.915 556.208 151.968 559.742 153.564 562.507C155.16 565.271 158.694 566.218 161.458 564.622C164.223 563.026 165.17 559.492 163.574 556.727C161.978 553.963 158.443 553.016 155.679 554.612Z" fill="#493686"/>
<path fill-rule="evenodd" clip-rule="evenodd" d="M180.755 598.046C177.991 599.642 177.044 603.177 178.64 605.941C180.236 608.706 183.77 609.653 186.535 608.057C189.299 606.461 190.246 602.926 188.65 600.162C187.054 597.398 183.52 596.45 180.755 598.046Z" fill="#493686"/>
<path fill-rule="evenodd" clip-rule="evenodd" d="M148.959 442.666C146.195 444.262 145.248 447.797 146.844 450.561C148.439 453.325 151.974 454.273 154.739 452.677C157.503 451.081 158.45 447.546 156.854 444.782C155.258 442.017 151.724 441.07 148.959 442.666Z" fill="#493686"/>
<path fill-rule="evenodd" clip-rule="evenodd" d="M174.036 486.101C171.272 487.697 170.325 491.231 171.921 493.995C173.517 496.759 177.051 497.707 179.816 496.111C182.58 494.515 183.527 490.98 181.931 488.216C180.335 485.452 176.801 484.504 174.036 486.101Z" fill="#493686"/>
<path fill-rule="evenodd" clip-rule="evenodd" d="M199.114 529.535C196.349 531.131 195.402 534.666 196.998 537.43C198.594 540.194 202.129 541.141 204.893 539.545C207.657 537.949 208.604 534.415 207.008 531.651C205.412 528.886 201.878 527.939 199.114 529.535Z" fill="#493686"/>
<path fill-rule="evenodd" clip-rule="evenodd" d="M224.19 572.97C221.425 574.566 220.479 578.101 222.074 580.865C223.67 583.629 227.205 584.576 229.969 582.98C232.734 581.384 233.681 577.849 232.085 575.085C230.489 572.321 226.954 571.374 224.19 572.97Z" fill="#493686"/>
<path fill-rule="evenodd" clip-rule="evenodd" d="M192.394 417.589C189.629 419.185 188.682 422.72 190.278 425.484C191.874 428.248 195.409 429.196 198.173 427.6C200.938 426.004 201.884 422.468 200.289 419.705C198.693 416.94 195.158 415.993 192.394 417.589Z" fill="#493686"/>
<path fill-rule="evenodd" clip-rule="evenodd" d="M217.471 461.024C214.707 462.62 213.76 466.154 215.356 468.919C216.951 471.682 220.486 472.63 223.25 471.034C226.015 469.438 226.962 465.903 225.366 463.139C223.77 460.375 220.235 459.428 217.471 461.024Z" fill="#493686"/>
<path fill-rule="evenodd" clip-rule="evenodd" d="M242.547 504.458C239.783 506.054 238.836 509.589 240.432 512.353C242.028 515.118 245.562 516.065 248.327 514.469C251.091 512.873 252.038 509.338 250.442 506.574C248.846 503.809 245.312 502.862 242.547 504.458Z" fill="#493686"/>
<path fill-rule="evenodd" clip-rule="evenodd" d="M267.624 547.892C264.86 549.489 263.913 553.024 265.509 555.787C267.105 558.552 270.639 559.499 273.404 557.903C276.168 556.307 277.115 552.772 275.519 550.008C273.924 547.244 270.389 546.296 267.624 547.892Z" fill="#493686"/>
<path fill-rule="evenodd" clip-rule="evenodd" d="M235.828 392.513C233.064 394.109 232.117 397.643 233.713 400.408C235.309 403.171 238.843 404.119 241.608 402.523C244.372 400.927 245.319 397.392 243.723 394.628C242.127 391.864 238.593 390.917 235.828 392.513Z" fill="#493686"/>
<path fill-rule="evenodd" clip-rule="evenodd" d="M260.905 435.947C258.14 437.543 257.193 441.078 258.789 443.842C260.385 446.606 263.92 447.554 266.684 445.958C269.448 444.361 270.395 440.826 268.799 438.063C267.203 435.298 263.669 434.351 260.905 435.947Z" fill="#493686"/>
<path fill-rule="evenodd" clip-rule="evenodd" d="M285.982 479.381C283.217 480.977 282.27 484.512 283.866 487.276C285.462 490.041 288.997 490.988 291.761 489.392C294.526 487.796 295.473 484.261 293.877 481.497C292.281 478.732 288.746 477.785 285.982 479.381Z" fill="#493686"/>
<path fill-rule="evenodd" clip-rule="evenodd" d="M311.059 522.816C308.294 524.412 307.348 527.947 308.943 530.711C310.539 533.475 314.074 534.422 316.838 532.826C319.603 531.23 320.55 527.696 318.954 524.931C317.358 522.168 313.823 521.22 311.059 522.816Z" fill="#493686"/>
<path opacity="0.203246" fill-rule="evenodd" clip-rule="evenodd" d="M398.946 11.3226C372.612 11.3226 351.313 32.4718 351.313 58.5C351.313 84.5282 372.612 105.677 398.946 105.677C425.281 105.677 446.579 84.5282 446.579 58.5C446.579 32.4718 425.281 11.3226 398.946 11.3226ZM339.946 58.5C339.946 26.1642 366.389 0 398.946 0C431.504 0 457.946 26.1642 457.946 58.5C457.946 90.8358 431.504 117 398.946 117C366.389 117 339.946 90.8358 339.946 58.5Z" fill="#37C9EE"/>
</svg>
