<svg width="175" height="175" viewBox="0 0 175 175" fill="none" xmlns="http://www.w3.org/2000/svg">
<rect width="175" height="175" rx="16" fill="#EFEFEF"/>
<path d="M72.5 105.5C71.7 105.5 71 105.2 70.4 104.6C69.8 104 69.5 103.3 69.5 102.5V72.5C69.5 71.7 69.8 71 70.4 70.4C71 69.8 71.7 69.5 72.5 69.5H102.5C103.3 69.5 104 69.8 104.6 70.4C105.2 71 105.5 71.7 105.5 72.5V102.5C105.5 103.3 105.2 104 104.6 104.6C104 105.2 103.3 105.5 102.5 105.5H72.5ZM75.3 97.65H99.75L92.4 87.85L85.8 96.4L81.15 90.05L75.3 97.65Z" fill="#CACACA"/>
</svg>
