<svg width="32" height="32" viewBox="0 0 32 32" fill="none" xmlns="http://www.w3.org/2000/svg">
<path fillRule="evenodd" clipRule="evenodd" d="M16.0166 4C22.6447 4 28.0166 9.3719 28.0166 16C28.0166 22.6281 22.6447 28 16.0166 28C9.38849 28 4.0166 22.6281 4.0166 16C4.0166 9.3719 9.38849 4 16.0166 4ZM17.2232 18.3967C17.8844 18.3967 18.4298 17.8512 18.4298 17.1901V11.1901C18.4298 10.5289 17.8844 9.98348 17.2232 9.98348C16.562 9.98348 16.0166 10.5289 16.0166 11.1901V16H11.2067C10.5455 16 10.0001 16.5455 10.0001 17.2066C10.0001 17.8678 10.5455 18.4132 11.2067 18.4132H17.2067L17.2232 18.3967ZM16.0166 6.39669C21.3224 6.39669 25.6199 10.6942 25.6199 16C25.6199 21.3058 21.3224 25.6033 16.0166 25.6033C10.7108 25.6033 6.41329 21.3058 6.41329 16C6.41329 10.6942 10.7108 6.39669 16.0166 6.39669Z" fill="#13548A"/>
</svg>
