<svg width="24" height="24" viewBox="0 0 24 24" fill="none" xmlns="http://www.w3.org/2000/svg">
<path fillRule="evenodd" clipRule="evenodd" d="M12.0124 3C16.9835 3 21.0124 7.02893 21.0124 12C21.0124 16.9711 16.9835 21 12.0124 21C7.04137 21 3.01245 16.9711 3.01245 12C3.01245 7.02893 7.04137 3 12.0124 3ZM12.9174 13.7975C13.4133 13.7975 13.8224 13.3884 13.8224 12.8926V8.39256C13.8224 7.89669 13.4133 7.48761 12.9174 7.48761C12.4215 7.48761 12.0124 7.89669 12.0124 8.39256V12H8.405C7.90913 12 7.50005 12.4091 7.50005 12.905C7.50005 13.4008 7.90913 13.8099 8.405 13.8099H12.905L12.9174 13.7975ZM12.0124 4.79752C15.9918 4.79752 19.2149 8.02066 19.2149 12C19.2149 15.9793 15.9918 19.2025 12.0124 19.2025C8.03311 19.2025 4.80997 15.9793 4.80997 12C4.80997 8.02066 8.03311 4.79752 12.0124 4.79752Z" fill="white"/>
</svg>
