<svg width="24" height="24" viewBox="0 0 24 24" fill="none" xmlns="http://www.w3.org/2000/svg">
<path d="M24 0H0V24H24V0Z" fill="#B86DF3"/>
<path fillRule="evenodd" clipRule="evenodd" d="M5.98779 20.9876L17.6779 21C19.5126 21 21.0126 19.5 21.0126 17.6777V6.33471C21.0126 4.5 19.5126 3 17.6779 3H6.3349C4.50019 3 3.00018 4.5 3.00018 6.33471V17.6777C3.00018 19.3884 4.31424 20.8141 5.98779 21V20.9876ZM12.0002 14.6901C12.0002 15.186 12.4093 15.595 12.9051 15.595H17.4052C17.901 15.595 18.3101 15.186 18.3101 14.6901C18.3101 14.1942 17.901 13.7851 17.4052 13.7851H12.9051C12.4093 13.7851 12.0002 14.1942 12.0002 14.6901ZM18.2977 17.3926C18.2977 16.8967 17.8886 16.4876 17.3927 16.4876H6.59524C6.09937 16.4876 5.69026 16.8967 5.69026 17.3926C5.69026 17.8884 6.09937 18.2975 6.59524 18.2975H17.3927C17.8886 18.2975 18.2977 17.8884 18.2977 17.3926ZM14.6903 5.69009C15.1861 5.69009 15.5952 6.08678 15.5952 6.59504C15.5952 7.09091 15.1861 7.5 14.6903 7.5C14.1944 7.5 13.7853 7.09091 13.7853 6.59504C13.7853 6.09918 14.1944 5.69009 14.6903 5.69009ZM11.9878 5.69009C12.4837 5.69009 12.8928 6.08678 12.8928 6.59504C12.8928 7.09091 12.4837 7.5 11.9878 7.5C11.4919 7.5 11.0828 7.09091 11.0828 6.59504C11.0828 6.09918 11.4919 5.69009 11.9878 5.69009ZM17.3927 5.69009C17.8886 5.69009 18.2977 6.08678 18.2977 6.59504C18.2977 7.09091 17.8886 7.5 17.3927 7.5C16.8969 7.5 16.4878 7.09091 16.4878 6.59504C16.4878 6.09918 16.8969 5.69009 17.3927 5.69009ZM17.6655 4.78512C18.087 4.78512 18.4713 4.95868 18.744 5.2314C19.0167 5.50413 19.1903 5.88843 19.1903 6.30992V8.38017H4.78531V6.30992C4.78531 5.88843 4.95886 5.50413 5.23159 5.2314C5.50432 4.95868 5.88861 4.78512 6.3101 4.78512H17.6531H17.6655ZM17.6655 19.1901H6.32251C5.90102 19.1901 5.51671 19.0165 5.24398 18.7438C4.97125 18.4711 4.7977 18.0868 4.7977 17.6653V10.1901H19.2027V17.6653C19.2027 18.0868 19.0291 18.4711 18.7564 18.7438C18.4837 19.0165 18.0994 19.1901 17.6779 19.1901H17.6655Z" fill="#575757"/>
</svg>
